<svg xmlns="http://www.w3.org/2000/svg" xmlns:xlink="http://www.w3.org/1999/xlink" width="160" zoomAndPan="magnify" viewBox="0 0 120 179.999997" height="240" preserveAspectRatio="xMidYMid meet" version="1.0"><defs><clipPath id="7c70df81a8"><path d="M 0 0 L 60 0 L 60 60 L 0 60 Z M 0 0 " clip-rule="nonzero"/></clipPath><clipPath id="81af177748"><path d="M 0 60 L 60 60 L 60 120 L 0 120 Z M 0 60 " clip-rule="nonzero"/></clipPath><clipPath id="e007a8b469"><path d="M 0 120 L 60 120 L 60 180 L 0 180 Z M 0 120 " clip-rule="nonzero"/></clipPath><clipPath id="0937b418d9"><path d="M 60 0 L 120 0 L 120 60 L 60 60 Z M 60 0 " clip-rule="nonzero"/></clipPath></defs><path fill="#0cc0df" d="M 0 0 L 60 0 L 60 60 L 0 60 Z M 0 0 " fill-opacity="1" fill-rule="nonzero"/><g clip-path="url(#7c70df81a8)"><path stroke-linecap="butt" transform="matrix(0.75, 0, 0, 0.75, 0.00000113333, 0)" fill="none" stroke-linejoin="miter" d="M -0.00000151111 0 L 80.000008 0 L 80.000008 80.00001 L -0.00000151111 80.00001 Z M -0.00000151111 0 " stroke="#f9f8f8" stroke-width="2" stroke-opacity="1" stroke-miterlimit="4"/></g><path fill="#0cc0df" d="M 0 60 L 60 60 L 60 120 L 0 120 Z M 0 60 " fill-opacity="1" fill-rule="nonzero"/><g clip-path="url(#81af177748)"><path stroke-linecap="butt" transform="matrix(0.75, 0, 0, 0.75, 0.00000113333, 59.999996)" fill="none" stroke-linejoin="miter" d="M -0.00000151111 0.00000484444 L 80.000008 0.00000484444 L 80.000008 80.000015 L -0.00000151111 80.000015 Z M -0.00000151111 0.00000484444 " stroke="#f9f8f8" stroke-width="2" stroke-opacity="1" stroke-miterlimit="4"/></g><path fill="#0cc0df" d="M 0 120 L 60 120 L 60 180 L 0 180 Z M 0 120 " fill-opacity="1" fill-rule="nonzero"/><g clip-path="url(#e007a8b469)"><path stroke-linecap="butt" transform="matrix(0.75, 0, 0, 0.75, 0.00000113333, 119.999993)" fill="none" stroke-linejoin="miter" d="M -0.00000151111 0.00000968889 L 80.000008 0.00000968889 L 80.000008 80.00002 L -0.00000151111 80.00002 Z M -0.00000151111 0.00000968889 " stroke="#f9f8f8" stroke-width="2" stroke-opacity="1" stroke-miterlimit="4"/></g><path fill="#0cc0df" d="M 60 0 L 120 0 L 120 60 L 60 60 Z M 60 0 " fill-opacity="1" fill-rule="nonzero"/><g clip-path="url(#0937b418d9)"><path stroke-linecap="butt" transform="matrix(0.75, 0, 0, 0.75, 59.999998, 0)" fill="none" stroke-linejoin="miter" d="M 0.00000333333 0 L 80.000013 0 L 80.000013 80.00001 L 0.00000333333 80.00001 Z M 0.00000333333 0 " stroke="#f9f8f8" stroke-width="2" stroke-opacity="1" stroke-miterlimit="4"/></g></svg>