<svg xmlns="http://www.w3.org/2000/svg" xmlns:xlink="http://www.w3.org/1999/xlink" width="1920" zoomAndPan="magnify" viewBox="0 0 1440 809.999993" height="1080" preserveAspectRatio="xMidYMid meet" version="1.0"><defs><g/></defs><g fill="#000000" fill-opacity="1"><g transform="translate(544.479123, 344.215919)"><g><path d="M 134.875 -125.140625 C 135.476562 -124.804688 135.882812 -124.316406 136.09375 -123.671875 C 136.3125 -123.035156 136.289062 -122.414062 136.03125 -121.8125 C 135.351562 -120.53125 134.566406 -118.992188 133.671875 -117.203125 C 132.773438 -115.410156 131.769531 -113.445312 130.65625 -111.3125 C 127.925781 -105.84375 124.617188 -99.304688 120.734375 -91.703125 C 116.847656 -84.109375 112.597656 -75.910156 107.984375 -67.109375 C 103.367188 -58.316406 98.5625 -49.3125 93.5625 -40.09375 C 88.570312 -30.875 83.515625 -21.863281 78.390625 -13.0625 C 72.160156 -2.300781 66.628906 6.789062 61.796875 14.21875 C 56.972656 21.644531 52.722656 27.707031 49.046875 32.40625 C 45.378906 37.101562 42.203125 40.734375 39.515625 43.296875 C 36.828125 45.859375 34.539062 47.628906 32.65625 48.609375 C 30.78125 49.585938 29.160156 50.078125 27.796875 50.078125 C 27.203125 50.078125 26.601562 49.992188 26 49.828125 C 23.695312 49.316406 22.007812 47.90625 20.9375 45.59375 C 19.875 43.289062 19.191406 40.625 18.890625 37.59375 C 18.597656 34.5625 18.492188 31.679688 18.578125 28.953125 C 18.660156 24.679688 19.128906 19.425781 19.984375 13.1875 C 20.835938 6.957031 21.96875 0.0859375 23.375 -7.421875 C 24.78125 -14.941406 26.359375 -22.734375 28.109375 -30.796875 C 29.867188 -38.867188 31.6875 -46.832031 33.5625 -54.6875 C 35.4375 -62.550781 37.226562 -70.003906 38.9375 -77.046875 C 40.644531 -84.085938 42.140625 -90.257812 43.421875 -95.5625 C 44.023438 -97.863281 44.5625 -99.929688 45.03125 -101.765625 C 45.5 -103.609375 45.859375 -105.210938 46.109375 -106.578125 C 47.304688 -111.441406 47.90625 -115.085938 47.90625 -117.515625 C 47.90625 -119.953125 47.671875 -121.597656 47.203125 -122.453125 C 46.734375 -123.304688 46.457031 -123.773438 46.375 -123.859375 C 45.851562 -124.203125 44.910156 -124.160156 43.546875 -123.734375 C 42.179688 -123.304688 40.347656 -122.195312 38.046875 -120.40625 C 35.304688 -118.351562 32.523438 -115.679688 29.703125 -112.390625 C 26.890625 -109.109375 24.222656 -105.503906 21.703125 -101.578125 C 19.191406 -97.648438 17.0625 -93.65625 15.3125 -89.59375 C 13.5625 -85.539062 12.363281 -81.675781 11.71875 -78 C 11.082031 -74.332031 11.234375 -71.09375 12.171875 -68.28125 C 14.046875 -62.550781 19.640625 -59.601562 28.953125 -59.4375 C 29.628906 -59.4375 30.203125 -59.175781 30.671875 -58.65625 C 31.148438 -58.144531 31.390625 -57.550781 31.390625 -56.875 C 31.390625 -56.28125 31.148438 -55.722656 30.671875 -55.203125 C 30.203125 -54.691406 29.628906 -54.476562 28.953125 -54.5625 C 24.171875 -54.5625 20.304688 -55.203125 17.359375 -56.484375 C 14.410156 -57.765625 12.164062 -59.320312 10.625 -61.15625 C 9.09375 -63 8.023438 -64.859375 7.421875 -66.734375 C 6.234375 -70.234375 6 -74.140625 6.71875 -78.453125 C 7.445312 -82.765625 8.8125 -87.179688 10.8125 -91.703125 C 12.820312 -96.234375 15.210938 -100.59375 17.984375 -104.78125 C 20.765625 -108.96875 23.648438 -112.769531 26.640625 -116.1875 C 29.628906 -119.601562 32.445312 -122.332031 35.09375 -124.375 C 38.769531 -127.195312 41.71875 -128.691406 43.9375 -128.859375 C 46.15625 -129.035156 47.863281 -128.738281 49.0625 -127.96875 C 53.25 -125.226562 53.890625 -117.710938 50.984375 -105.421875 C 50.640625 -104.054688 50.234375 -102.453125 49.765625 -100.609375 C 49.296875 -98.773438 48.804688 -96.707031 48.296875 -94.40625 C 47.015625 -89.539062 45.5625 -83.691406 43.9375 -76.859375 C 42.3125 -70.023438 40.554688 -62.703125 38.671875 -54.890625 C 36.796875 -47.078125 34.984375 -39.113281 33.234375 -31 C 31.484375 -22.882812 29.882812 -15.023438 28.4375 -7.421875 C 26.988281 0.171875 25.8125 7.101562 24.90625 13.375 C 24.007812 19.65625 23.519531 24.890625 23.4375 29.078125 C 23.4375 33.691406 23.671875 37.128906 24.140625 39.390625 C 24.609375 41.648438 25.140625 43.140625 25.734375 43.859375 C 26.335938 44.585938 26.8125 45 27.15625 45.09375 C 27.582031 45.175781 28.4375 45.003906 29.71875 44.578125 C 31 44.148438 32.898438 42.800781 35.421875 40.53125 C 37.941406 38.269531 41.25 34.453125 45.34375 29.078125 C 53.195312 18.828125 62.804688 3.925781 74.171875 -15.625 C 79.203125 -24.332031 84.238281 -33.273438 89.28125 -42.453125 C 94.320312 -51.640625 99.125 -60.628906 103.6875 -69.421875 C 108.257812 -78.222656 112.46875 -86.398438 116.3125 -93.953125 C 120.15625 -101.515625 123.484375 -108.023438 126.296875 -113.484375 C 127.410156 -115.710938 128.414062 -117.703125 129.3125 -119.453125 C 130.207031 -121.203125 130.953125 -122.71875 131.546875 -124 C 131.890625 -124.59375 132.378906 -124.992188 133.015625 -125.203125 C 133.660156 -125.421875 134.28125 -125.398438 134.875 -125.140625 Z M 134.875 -125.140625 "/></g></g></g><g fill="#000000" fill-opacity="1"><g transform="translate(653.231404, 344.215919)"><g><path d="M 38.046875 -23.953125 C 38.296875 -23.359375 38.3125 -22.738281 38.09375 -22.09375 C 37.882812 -21.457031 37.484375 -20.96875 36.890625 -20.625 C 36.628906 -20.539062 36.304688 -20.472656 35.921875 -20.421875 C 35.546875 -20.378906 34.628906 -20.359375 33.171875 -20.359375 C 31.722656 -20.359375 29.25 -20.359375 25.75 -20.359375 C 23.78125 -20.359375 21.578125 -20.359375 19.140625 -20.359375 C 16.710938 -20.359375 14.554688 -20.359375 12.671875 -20.359375 C 10.796875 -20.359375 9.601562 -20.316406 9.09375 -20.234375 C 9.007812 -20.234375 8.925781 -20.234375 8.84375 -20.234375 C 7.382812 -20.234375 6.570312 -20.960938 6.40625 -22.421875 C 6.320312 -23.097656 6.492188 -23.710938 6.921875 -24.265625 C 7.347656 -24.828125 7.898438 -25.148438 8.578125 -25.234375 C 9.347656 -25.316406 11.269531 -25.359375 14.34375 -25.359375 C 17.414062 -25.359375 21.257812 -25.316406 25.875 -25.234375 C 27.925781 -25.234375 29.929688 -25.234375 31.890625 -25.234375 C 33.859375 -25.234375 35.054688 -25.234375 35.484375 -25.234375 C 36.679688 -25.492188 37.535156 -25.066406 38.046875 -23.953125 Z M 38.046875 -23.953125 "/></g></g></g><g fill="#000000" fill-opacity="1"><g transform="translate(697.936403, 344.215919)"><g><path d="M 104.140625 -29.84375 C 104.734375 -29.59375 105.132812 -29.144531 105.34375 -28.5 C 105.5625 -27.863281 105.546875 -27.242188 105.296875 -26.640625 C 96.753906 -8.285156 88.253906 7.25 79.796875 19.96875 C 71.347656 32.695312 63.238281 42.367188 55.46875 48.984375 C 47.695312 55.609375 40.4375 58.921875 33.6875 58.921875 C 31.726562 58.921875 29.804688 58.625 27.921875 58.03125 C 23.304688 56.664062 19.398438 53.632812 16.203125 48.9375 C 13.003906 44.238281 10.570312 38.21875 8.90625 30.875 C 7.238281 23.53125 6.40625 15.140625 6.40625 5.703125 C 6.40625 -3.734375 7.300781 -13.960938 9.09375 -24.984375 C 10.289062 -32.410156 12 -40.328125 14.21875 -48.734375 C 16.4375 -57.148438 18.957031 -65.285156 21.78125 -73.140625 C 23.394531 -77.578125 25.332031 -82.421875 27.59375 -87.671875 C 29.863281 -92.929688 32.40625 -98.117188 35.21875 -103.234375 C 38.039062 -108.359375 41.160156 -112.972656 44.578125 -117.078125 C 47.304688 -120.410156 49.757812 -122.738281 51.9375 -124.0625 C 54.113281 -125.382812 56.015625 -126.085938 57.640625 -126.171875 C 59.265625 -126.253906 60.628906 -126.039062 61.734375 -125.53125 C 64.554688 -124.164062 66.539062 -121.347656 67.6875 -117.078125 C 68.84375 -112.804688 69.421875 -107.507812 69.421875 -101.1875 C 69.421875 -94.875 68.972656 -87.914062 68.078125 -80.3125 C 67.179688 -72.71875 65.984375 -64.882812 64.484375 -56.8125 C 62.992188 -48.738281 61.394531 -40.859375 59.6875 -33.171875 C 59.519531 -32.578125 59.132812 -32.085938 58.53125 -31.703125 C 57.9375 -31.316406 57.34375 -31.210938 56.75 -31.390625 C 56.0625 -31.554688 55.523438 -31.914062 55.140625 -32.46875 C 54.753906 -33.019531 54.648438 -33.640625 54.828125 -34.328125 C 58.148438 -49.097656 60.554688 -61.800781 62.046875 -72.4375 C 63.546875 -83.070312 64.335938 -91.847656 64.421875 -98.765625 C 64.515625 -105.679688 64.113281 -110.929688 63.21875 -114.515625 C 62.320312 -118.097656 61.101562 -120.273438 59.5625 -121.046875 C 58.363281 -121.640625 56.78125 -121.296875 54.8125 -120.015625 C 52.851562 -118.742188 50.722656 -116.738281 48.421875 -114 C 45.171875 -110.070312 42.050781 -105.414062 39.0625 -100.03125 C 36.070312 -94.65625 33.273438 -88.785156 30.671875 -82.421875 C 28.066406 -76.066406 25.675781 -69.515625 23.5 -62.765625 C 21.320312 -56.015625 19.421875 -49.351562 17.796875 -42.78125 C 16.179688 -36.207031 14.90625 -30.015625 13.96875 -24.203125 C 12.257812 -13.867188 11.378906 -4.175781 11.328125 4.875 C 11.285156 13.925781 12.035156 22.035156 13.578125 29.203125 C 15.023438 35.867188 17.113281 41.269531 19.84375 45.40625 C 22.582031 49.550781 25.789062 52.175781 29.46875 53.28125 C 37.570312 55.84375 47.347656 51.148438 58.796875 39.203125 C 72.285156 25.109375 86.289062 2.476562 100.8125 -28.6875 C 101.0625 -29.289062 101.503906 -29.71875 102.140625 -29.96875 C 102.785156 -30.226562 103.453125 -30.1875 104.140625 -29.84375 Z M 104.140625 -29.84375 "/></g></g></g><g fill="#000000" fill-opacity="1"><g transform="translate(796.825389, 344.215919)"><g><path d="M 53.671875 -28.4375 C 54.265625 -28.175781 54.664062 -27.722656 54.875 -27.078125 C 55.09375 -26.441406 55.078125 -25.828125 54.828125 -25.234375 C 53.203125 -21.898438 51.425781 -18.566406 49.5 -15.234375 C 47.582031 -11.910156 45.578125 -8.859375 43.484375 -6.078125 C 41.390625 -3.304688 39.234375 -1.085938 37.015625 0.578125 C 34.796875 2.242188 32.578125 3.078125 30.359375 3.078125 C 29.929688 3.078125 29.460938 3.035156 28.953125 2.953125 C 23.222656 1.835938 19.675781 -5.847656 18.3125 -20.109375 C 16.863281 -18.148438 15.175781 -15.953125 13.25 -13.515625 C 11.332031 -11.078125 9.304688 -8.664062 7.171875 -6.28125 C 6.828125 -5.9375 6.269531 -5.398438 5.5 -4.671875 C 4.738281 -3.953125 3.84375 -3.378906 2.8125 -2.953125 C 1.789062 -2.523438 0.769531 -2.566406 -0.25 -3.078125 C -2.300781 -3.847656 -3.285156 -6.066406 -3.203125 -9.734375 C -3.203125 -11.867188 -2.796875 -14.515625 -1.984375 -17.671875 C -1.171875 -20.835938 -0.0195312 -24.019531 1.46875 -27.21875 C 2.96875 -30.414062 4.71875 -33.253906 6.71875 -35.734375 C 8.726562 -38.210938 10.972656 -39.878906 13.453125 -40.734375 C 14.984375 -41.328125 16.859375 -41.429688 19.078125 -41.046875 C 21.304688 -40.671875 23.613281 -39.070312 26 -36.25 C 26.425781 -35.738281 26.617188 -35.140625 26.578125 -34.453125 C 26.535156 -33.773438 26.257812 -33.222656 25.75 -32.796875 C 25.238281 -32.367188 24.640625 -32.175781 23.953125 -32.21875 C 23.265625 -32.257812 22.707031 -32.535156 22.28125 -33.046875 C 20.238281 -35.441406 18.46875 -36.570312 16.96875 -36.4375 C 15.476562 -36.3125 14.21875 -35.863281 13.1875 -35.09375 C 11.3125 -33.726562 9.601562 -31.765625 8.0625 -29.203125 C 6.53125 -26.640625 5.25 -23.945312 4.21875 -21.125 C 3.195312 -18.3125 2.472656 -15.6875 2.046875 -13.25 C 1.617188 -10.820312 1.492188 -9.050781 1.671875 -7.9375 C 1.921875 -8.113281 2.195312 -8.328125 2.5 -8.578125 C 2.800781 -8.835938 3.117188 -9.179688 3.453125 -9.609375 C 6.015625 -12.421875 8.363281 -15.210938 10.5 -17.984375 C 12.632812 -20.765625 14.472656 -23.222656 16.015625 -25.359375 C 16.441406 -25.960938 16.847656 -26.539062 17.234375 -27.09375 C 17.617188 -27.644531 17.976562 -28.132812 18.3125 -28.5625 C 19 -29.414062 19.894531 -29.671875 21 -29.328125 C 22.113281 -29.078125 22.710938 -28.351562 22.796875 -27.15625 C 23.054688 -21.601562 23.503906 -17.140625 24.140625 -13.765625 C 24.785156 -10.390625 25.488281 -7.867188 26.25 -6.203125 C 27.019531 -4.546875 27.75 -3.414062 28.4375 -2.8125 C 29.125 -2.21875 29.632812 -1.921875 29.96875 -1.921875 C 31.59375 -1.578125 34.195312 -3.238281 37.78125 -6.90625 C 41.375 -10.582031 45.5625 -17.375 50.34375 -27.28125 C 50.6875 -27.96875 51.175781 -28.414062 51.8125 -28.625 C 52.457031 -28.84375 53.078125 -28.78125 53.671875 -28.4375 Z M 53.671875 -28.4375 "/></g></g></g><g fill="#000000" fill-opacity="1"><g transform="translate(844.476569, 344.215919)"><g><path d="M 56.234375 -29.078125 C 56.828125 -28.734375 57.25 -28.238281 57.5 -27.59375 C 57.757812 -26.957031 57.722656 -26.34375 57.390625 -25.75 C 55.765625 -22.25 53.773438 -18.316406 51.421875 -13.953125 C 49.078125 -9.597656 46.582031 -5.222656 43.9375 -0.828125 C 41.289062 3.566406 38.597656 7.578125 35.859375 11.203125 C 33.128906 14.835938 30.484375 17.785156 27.921875 20.046875 C 25.359375 22.304688 23.050781 23.4375 21 23.4375 C 20.40625 23.4375 19.851562 23.3125 19.34375 23.0625 C 17.550781 22.375 16.375 20.75 15.8125 18.1875 C 15.257812 15.625 15.328125 11.953125 16.015625 7.171875 C 17.210938 -1.453125 20.367188 -13.664062 25.484375 -29.46875 C 25.398438 -29.46875 25.335938 -29.441406 25.296875 -29.390625 C 25.253906 -29.347656 25.191406 -29.328125 25.109375 -29.328125 C 23.398438 -28.140625 21.347656 -26.90625 18.953125 -25.625 C 16.566406 -24.34375 14.09375 -23.488281 11.53125 -23.0625 C 8.96875 -22.632812 6.535156 -23.1875 4.234375 -24.71875 C 0.984375 -27.03125 -0.679688 -30.234375 -0.765625 -34.328125 C -0.847656 -38.429688 0.6875 -42.914062 3.84375 -47.78125 C 4.863281 -49.3125 6.207031 -51.015625 7.875 -52.890625 C 9.539062 -54.773438 11.289062 -56.226562 13.125 -57.25 C 14.96875 -58.28125 16.613281 -58.328125 18.0625 -57.390625 C 18.832031 -56.960938 19.40625 -56.234375 19.78125 -55.203125 C 20.164062 -54.179688 20.144531 -52.601562 19.71875 -50.46875 C 19.300781 -48.332031 18.28125 -45.46875 16.65625 -41.875 C 15.03125 -38.289062 12.59375 -33.640625 9.34375 -27.921875 C 11.3125 -27.671875 13.507812 -28.226562 15.9375 -29.59375 C 18.375 -30.957031 20.535156 -32.238281 22.421875 -33.4375 C 24.210938 -34.625 25.703125 -35.492188 26.890625 -36.046875 C 28.085938 -36.609375 29.203125 -36.503906 30.234375 -35.734375 C 31.171875 -34.960938 31.550781 -34.019531 31.375 -32.90625 C 31.207031 -31.800781 31.039062 -30.953125 30.875 -30.359375 C 28.050781 -21.472656 25.867188 -14.082031 24.328125 -8.1875 C 22.796875 -2.300781 21.75 2.429688 21.1875 6.015625 C 20.632812 9.609375 20.359375 12.300781 20.359375 14.09375 C 20.359375 15.882812 20.488281 17.054688 20.75 17.609375 C 21.007812 18.171875 21.140625 18.492188 21.140625 18.578125 C 22.160156 18.742188 24.269531 17.097656 27.46875 13.640625 C 30.675781 10.179688 34.5 4.972656 38.9375 -1.984375 C 43.375 -8.941406 48.03125 -17.546875 52.90625 -27.796875 C 53.25 -28.484375 53.738281 -28.929688 54.375 -29.140625 C 55.019531 -29.359375 55.640625 -29.335938 56.234375 -29.078125 Z M 4.609375 -37.78125 C 4.097656 -35.988281 3.945312 -34.515625 4.15625 -33.359375 C 4.375 -32.210938 4.695312 -31.296875 5.125 -30.609375 C 7.851562 -35.390625 9.921875 -39.273438 11.328125 -42.265625 C 12.742188 -45.253906 13.707031 -47.5625 14.21875 -49.1875 C 14.726562 -50.8125 15.023438 -51.960938 15.109375 -52.640625 C 14.171875 -52.128906 13 -51.144531 11.59375 -49.6875 C 10.1875 -48.238281 8.820312 -46.488281 7.5 -44.4375 C 6.175781 -42.394531 5.210938 -40.175781 4.609375 -37.78125 Z M 4.609375 -37.78125 "/></g></g></g><g fill="#13283c" fill-opacity="1"><g transform="translate(461.147762, 544.48683)"><g><path d="M 42.265625 1.21875 L 39.828125 0.484375 L 32.890625 -0.734375 L 30.8125 -1.34375 L 22.40625 -6.21875 L 18.390625 -9.015625 L 13.515625 -14.125 L 10.71875 -18.265625 L 8.53125 -22.40625 L 5.109375 -33.859375 L 4.5 -42.390625 L 4.625 -46.28125 L 6.828125 -58.34375 L 11.328125 -67.46875 L 12.671875 -69.296875 L 14.5 -71.125 L 16.078125 -73.078125 L 21.4375 -77.828125 L 28.140625 -81.96875 L 37.515625 -85.375 L 39.828125 -85.5 L 41.890625 -86.234375 L 44.328125 -86.359375 L 55.65625 -85.859375 L 61.390625 -84.28125 L 63.9375 -83.796875 L 72.46875 -79.296875 L 74.296875 -77.828125 L 76.25 -76 L 78.921875 -73.8125 L 83.796875 -66.75 L 84.890625 -64.546875 L 86.59375 -59.5625 L 85.859375 -57.484375 L 82.828125 -56.140625 L 76.96875 -56.515625 L 73.328125 -56.03125 L 69.546875 -56.140625 L 66.625 -57 L 64.0625 -59.078125 L 62.484375 -61.140625 L 61.015625 -62.71875 L 58.703125 -64.3125 L 56.390625 -65.28125 L 51.890625 -66.5 L 44.453125 -66.25 L 42.390625 -65.28125 L 40.078125 -65.046875 L 38 -63.9375 L 33.734375 -60.890625 L 29.96875 -55.171875 L 28.015625 -50.796875 L 27.15625 -46.046875 L 27.28125 -38.96875 L 27.890625 -35.078125 L 28.859375 -31.546875 L 31.1875 -27.15625 L 32.515625 -25.453125 L 36.171875 -22.046875 L 42.75 -19.359375 L 48.96875 -18.640625 L 52.125 -18.75 L 56.875 -19.859375 L 60.890625 -21.4375 L 62.609375 -22.78125 L 64.4375 -24.84375 L 65.65625 -26.921875 L 65.28125 -28.984375 L 63.453125 -29.84375 L 61.265625 -30.203125 L 55.171875 -29.71875 L 51.640625 -29.96875 L 49.453125 -31.296875 L 48.359375 -33.25 L 48.359375 -44.828125 L 49.453125 -47.140625 L 51.890625 -48.359375 L 56.515625 -48.71875 L 63.828125 -48.234375 L 80.265625 -48.59375 L 82.828125 -48.234375 L 85.375 -48.109375 L 87.6875 -46.890625 L 88.90625 -44.828125 L 89.15625 -40.1875 L 88.90625 -37.875 L 88.90625 -35.4375 L 88.421875 -33.25 L 88.296875 -31.1875 L 87.328125 -26.546875 L 84.890625 -19.359375 L 83.4375 -17.65625 L 82.328125 -15.46875 L 81.109375 -13.390625 L 79.65625 -11.6875 L 77.828125 -10.234375 L 76 -8.28125 L 72.21875 -5.359375 L 63.578125 -0.96875 L 54.4375 1.21875 Z M 42.265625 1.21875 "/></g></g></g><g fill="#13283c" fill-opacity="1"><g transform="translate(554.442991, 544.48683)"><g><path d="M 1.578125 -3.28125 L 3.046875 -8.40625 L 4.140625 -10.84375 L 5.609375 -12.78125 L 9.140625 -21.6875 L 12.546875 -28.015625 L 13.390625 -30.453125 L 14.5 -32.390625 L 15.21875 -34.953125 L 16.9375 -38.125 L 17.78125 -40.4375 L 19.609375 -43.609375 L 21.5625 -47.984375 L 22.890625 -50.1875 L 23.5 -52.25 L 30.328125 -67.59375 L 31.671875 -69.796875 L 36.90625 -80.75 L 37.640625 -82.9375 L 39.953125 -85.140625 L 43.84375 -86.359375 L 47.984375 -85.25 L 50.1875 -82.9375 L 50.90625 -80.625 L 52 -78.796875 L 53.953125 -74.171875 L 56.390625 -69.671875 L 58.21875 -65.40625 L 58.828125 -63.453125 L 61.015625 -58.828125 L 61.75 -56.515625 L 64.1875 -52.25 L 64.796875 -49.9375 L 66.015625 -47.859375 L 66.984375 -45.796875 L 68.328125 -43.609375 L 69.0625 -41.171875 L 70.15625 -39.34375 L 71 -36.90625 L 72.109375 -34.828125 L 73.078125 -32.390625 L 74.421875 -30.453125 L 76.125 -25.9375 L 77.34375 -23.875 L 78.1875 -21.5625 L 80.265625 -17.171875 L 81 -14.859375 L 82.21875 -13.03125 L 82.9375 -10.59375 L 84.53125 -8.53125 L 85.375 -6.328125 L 86.109375 -3.28125 L 85.625 -0.734375 L 83.4375 0 L 75.875 0.25 L 71.609375 -0.125 L 69.421875 0.125 L 66.25 -1.09375 L 64.1875 -3.046875 L 62.84375 -5.234375 L 62.234375 -7.421875 L 59.6875 -9.375 L 55.65625 -10.71875 L 49.9375 -10.46875 L 47.375 -10.71875 L 45.1875 -10.71875 L 42.390625 -10.359375 L 39.828125 -10.71875 L 33 -10.59375 L 30.578125 -10.84375 L 27.640625 -9.625 L 25.578125 -7.3125 L 23.5 -3.171875 L 21.3125 -0.96875 L 18.515625 0.25 L 15.34375 -0.125 L 4.625 -0.125 L 2.1875 -0.734375 Z M 39.21875 -30.078125 L 48.71875 -30.203125 L 50.796875 -31.1875 L 51.03125 -33.375 L 50.1875 -35.5625 L 48.96875 -38 L 48.46875 -39.953125 L 47.140625 -42.015625 L 45.546875 -46.765625 L 44.09375 -47.75 L 42.5 -46.53125 L 41.40625 -44.578125 L 36.53125 -33.5 L 36.90625 -31.0625 Z M 39.21875 -30.078125 "/></g></g></g><g fill="#13283c" fill-opacity="1"><g transform="translate(642.866401, 544.48683)"><g><path d="M 9.375 -3.890625 L 9.015625 -13.390625 L 9.25 -15.953125 L 8.765625 -23.015625 L 9.140625 -28.015625 L 8.765625 -30.6875 L 8.890625 -35.328125 L 9.140625 -37.875 L 9.140625 -43.96875 L 8.765625 -47.5 L 9.140625 -81.609375 L 10.109375 -84.15625 L 12.421875 -85.25 L 15.109375 -85.140625 L 17.421875 -85.5 L 22.40625 -85.015625 L 24.71875 -85.375 L 32.03125 -85.140625 L 34.109375 -85.375 L 36.78125 -85.140625 L 39.21875 -85.375 L 41.890625 -85.25 L 45.4375 -85.375 L 48.46875 -85.140625 L 58.578125 -83.0625 L 62.84375 -80.875 L 68.9375 -76.25 L 70.03125 -74.421875 L 71.734375 -72.59375 L 75.03125 -65.890625 L 75.640625 -63.453125 L 76 -61.140625 L 76.609375 -58.828125 L 76.484375 -49.203125 L 75.15625 -44.578125 L 74.296875 -42.5 L 72.953125 -40.3125 L 72.109375 -38 L 70.640625 -35.9375 L 67.234375 -32.640625 L 65.890625 -30.078125 L 66.25 -27.15625 L 69.90625 -20.828125 L 71.5 -18.875 L 72.71875 -16.6875 L 74.171875 -14.5 L 75.265625 -12.421875 L 79.171875 -6.453125 L 80.75 -3.40625 L 80.265625 -0.859375 L 77.703125 -0.25 L 75.03125 0 L 70.15625 0 L 67.71875 -0.25 L 65.046875 0 L 60.65625 -0.25 L 57.609375 -0.96875 L 55.171875 -3.171875 L 53.71875 -5.109375 L 52.609375 -7.1875 L 51.03125 -9.5 L 47.625 -15.59375 L 46.765625 -17.90625 L 43.609375 -22.171875 L 41.65625 -24.234375 L 38.609375 -25.21875 L 36.421875 -25.09375 L 34.21875 -25.09375 L 31.78125 -23.875 L 30.6875 -21.4375 L 30.9375 -13.890625 L 30.578125 -8.640625 L 31.0625 -6.09375 L 30.8125 -3.53125 L 29.96875 -1.21875 L 26.1875 0 L 22.53125 0 L 19.96875 -0.25 L 14.984375 0.125 L 12.671875 0 L 10.234375 -1.21875 Z M 34.21875 -44.828125 L 36.90625 -44.828125 L 39.34375 -44.453125 L 48.84375 -45.3125 L 50.671875 -46.15625 L 52.125 -47.625 L 53.46875 -49.6875 L 54.4375 -52.125 L 54.8125 -55.421875 L 54.5625 -58.953125 L 53.71875 -60.890625 L 52.5 -62.71875 L 48.71875 -65.046875 L 43.109375 -65.765625 L 36.421875 -65.890625 L 34.46875 -65.765625 L 32.03125 -64.546875 L 30.578125 -62.109375 L 30.9375 -48.46875 L 32.15625 -45.921875 Z M 34.21875 -44.828125 "/></g></g></g><g fill="#13283c" fill-opacity="1"><g transform="translate(727.270564, 544.48683)"><g><path d="M 1.578125 -3.28125 L 3.046875 -8.40625 L 4.140625 -10.84375 L 5.609375 -12.78125 L 9.140625 -21.6875 L 12.546875 -28.015625 L 13.390625 -30.453125 L 14.5 -32.390625 L 15.21875 -34.953125 L 16.9375 -38.125 L 17.78125 -40.4375 L 19.609375 -43.609375 L 21.5625 -47.984375 L 22.890625 -50.1875 L 23.5 -52.25 L 30.328125 -67.59375 L 31.671875 -69.796875 L 36.90625 -80.75 L 37.640625 -82.9375 L 39.953125 -85.140625 L 43.84375 -86.359375 L 47.984375 -85.25 L 50.1875 -82.9375 L 50.90625 -80.625 L 52 -78.796875 L 53.953125 -74.171875 L 56.390625 -69.671875 L 58.21875 -65.40625 L 58.828125 -63.453125 L 61.015625 -58.828125 L 61.75 -56.515625 L 64.1875 -52.25 L 64.796875 -49.9375 L 66.015625 -47.859375 L 66.984375 -45.796875 L 68.328125 -43.609375 L 69.0625 -41.171875 L 70.15625 -39.34375 L 71 -36.90625 L 72.109375 -34.828125 L 73.078125 -32.390625 L 74.421875 -30.453125 L 76.125 -25.9375 L 77.34375 -23.875 L 78.1875 -21.5625 L 80.265625 -17.171875 L 81 -14.859375 L 82.21875 -13.03125 L 82.9375 -10.59375 L 84.53125 -8.53125 L 85.375 -6.328125 L 86.109375 -3.28125 L 85.625 -0.734375 L 83.4375 0 L 75.875 0.25 L 71.609375 -0.125 L 69.421875 0.125 L 66.25 -1.09375 L 64.1875 -3.046875 L 62.84375 -5.234375 L 62.234375 -7.421875 L 59.6875 -9.375 L 55.65625 -10.71875 L 49.9375 -10.46875 L 47.375 -10.71875 L 45.1875 -10.71875 L 42.390625 -10.359375 L 39.828125 -10.71875 L 33 -10.59375 L 30.578125 -10.84375 L 27.640625 -9.625 L 25.578125 -7.3125 L 23.5 -3.171875 L 21.3125 -0.96875 L 18.515625 0.25 L 15.34375 -0.125 L 4.625 -0.125 L 2.1875 -0.734375 Z M 39.21875 -30.078125 L 48.71875 -30.203125 L 50.796875 -31.1875 L 51.03125 -33.375 L 50.1875 -35.5625 L 48.96875 -38 L 48.46875 -39.953125 L 47.140625 -42.015625 L 45.546875 -46.765625 L 44.09375 -47.75 L 42.5 -46.53125 L 41.40625 -44.578125 L 36.53125 -33.5 L 36.90625 -31.0625 Z M 39.21875 -30.078125 "/></g></g></g><g fill="#13283c" fill-opacity="1"><g transform="translate(815.693974, 544.48683)"><g><path d="M 44.578125 1.46875 L 42.015625 1.21875 L 35.203125 -0.25 L 28.375 -2.671875 L 26.1875 -3.78125 L 18.390625 -9.015625 L 14.984375 -12.546875 L 10.59375 -18.03125 L 9.25 -20.34375 L 6.703125 -27.03125 L 4.625 -36.421875 L 4.5 -38.96875 L 4.75 -42.390625 L 4.5 -48.46875 L 5.84375 -53.828125 L 5.96875 -56.03125 L 9.75 -65.28125 L 11.078125 -67.59375 L 12.90625 -69.296875 L 14.125 -71.25 L 15.71875 -73.328125 L 19.359375 -76.734375 L 25.453125 -80.875 L 27.640625 -81.96875 L 36.90625 -85.25 L 44.328125 -86.46875 L 56.390625 -85.859375 L 59.078125 -85.140625 L 61.5 -84.765625 L 63.453125 -83.921875 L 66.140625 -83.1875 L 74.421875 -78.078125 L 77.953125 -74.546875 L 81 -70.640625 L 82.703125 -68.9375 L 86.59375 -59.921875 L 85.75 -57.25 L 83.671875 -56.515625 L 81.359375 -56.265625 L 69.421875 -56.265625 L 66.75 -57.484375 L 64.0625 -59.4375 L 62.84375 -61.390625 L 56.75 -65.15625 L 54.4375 -65.765625 L 48.109375 -66.5 L 44.703125 -66.375 L 39.953125 -64.796875 L 37.875 -63.828125 L 33.859375 -61.015625 L 30.6875 -57.609375 L 28.859375 -53.109375 L 28.375 -50.671875 L 27.03125 -46.28125 L 27.765625 -34.109375 L 28.625 -31.78125 L 29.96875 -29.59375 L 30.9375 -27.53125 L 32.28125 -25.453125 L 35.9375 -22.53125 L 40.3125 -20.21875 L 42.5 -19.359375 L 44.703125 -18.875 L 48.46875 -18.640625 L 52 -18.75 L 54.4375 -19.125 L 59.078125 -20.578125 L 61.015625 -21.5625 L 64.546875 -24.96875 L 65.53125 -26.921875 L 65.046875 -28.984375 L 63.328125 -30.328125 L 56.03125 -29.96875 L 53.828125 -30.203125 L 51.515625 -30.203125 L 49.203125 -31.296875 L 48.46875 -33.375 L 47.984375 -35.6875 L 48.234375 -44.828125 L 49.328125 -47.140625 L 53.109375 -48.46875 L 83.671875 -48.46875 L 87.203125 -47.375 L 88.671875 -44.9375 L 89.03125 -42.5 L 88.546875 -33.25 L 87.8125 -30.8125 L 87.6875 -28.5 L 86.109375 -23.265625 L 83.3125 -17.65625 L 79.40625 -11.9375 L 75.875 -8.15625 L 71.859375 -5.609375 L 70.15625 -4.140625 L 61.140625 -0.25 L 59.078125 0.359375 L 56.75 0.484375 L 54.328125 0.96875 L 47.75 1.578125 Z M 44.578125 1.46875 "/></g></g></g><g fill="#13283c" fill-opacity="1"><g transform="translate(908.98922, 544.48683)"><g><path d="M 8.765625 -3.53125 L 9.25 -5.96875 L 9.375 -8.40625 L 9.140625 -13.15625 L 9.140625 -15.59375 L 8.890625 -18.390625 L 9.25 -20.578125 L 9.140625 -22.890625 L 9.375 -25.578125 L 9.015625 -28.140625 L 9.25 -33 L 8.890625 -37.75 L 9.25 -40.3125 L 9.25 -62.109375 L 9.015625 -64.3125 L 9.25 -66.859375 L 8.765625 -73.078125 L 9.25 -76.609375 L 9.015625 -81.484375 L 10.234375 -84.15625 L 13.765625 -85.015625 L 29.71875 -85.375 L 31.90625 -85.140625 L 36.65625 -85.25 L 39.09375 -85.015625 L 44.453125 -85.25 L 46.890625 -84.890625 L 49.078125 -85.140625 L 58.828125 -85.015625 L 61.390625 -83.921875 L 62.609375 -81.484375 L 62.234375 -79.171875 L 62.109375 -76.484375 L 62.484375 -74.171875 L 62.71875 -69.1875 L 61.390625 -66.984375 L 58.828125 -65.65625 L 35.4375 -65.53125 L 31.671875 -64.4375 L 30.453125 -60.890625 L 30.6875 -57.125 L 32.15625 -54.9375 L 34.21875 -53.59375 L 43.84375 -53.71875 L 46.640625 -53.46875 L 49.203125 -53.46875 L 51.640625 -53.71875 L 56.515625 -53.59375 L 58.578125 -52.25 L 59.6875 -49.9375 L 59.921875 -47.5 L 59.6875 -37.875 L 58.46875 -35.5625 L 56.03125 -34.21875 L 53.828125 -34.109375 L 51.28125 -34.34375 L 47.984375 -34.109375 L 41.53125 -34.46875 L 39.09375 -34.21875 L 34.34375 -34.21875 L 32.15625 -32.890625 L 31.0625 -30.328125 L 30.9375 -24.359375 L 32.03125 -20.578125 L 34.59375 -19.125 L 37.265625 -19.359375 L 39.953125 -19.125 L 42.265625 -19.484375 L 58.34375 -19.25 L 62 -18.03125 L 63.578125 -15.59375 L 63.328125 -13.28125 L 63.453125 -5.71875 L 63.21875 -3.40625 L 62.109375 -1.09375 L 59.5625 0.125 L 57.25 0.359375 L 49.8125 -0.125 L 42.390625 0.25 L 40.1875 -0.125 L 12.671875 0.125 L 10.359375 -1.21875 Z M 8.765625 -3.53125 "/></g></g></g><path fill="#000000" d="M 468 428.25 L 486 428.25 L 486 431.25 L 468 431.25 M 489 428.25 L 507 428.25 L 507 431.25 L 489 431.25 M 510 428.25 L 528 428.25 L 528 431.25 L 510 431.25 M 531 428.25 L 549 428.25 L 549 431.25 L 531 431.25 M 552 428.25 L 570 428.25 L 570 431.25 L 552 431.25 M 573 428.25 L 591 428.25 L 591 431.25 L 573 431.25 M 594 428.25 L 612 428.25 L 612 431.25 L 594 431.25 M 615 428.25 L 633 428.25 L 633 431.25 L 615 431.25 M 636 428.25 L 654 428.25 L 654 431.25 L 636 431.25 M 657 428.25 L 675 428.25 L 675 431.25 L 657 431.25 M 678 428.25 L 696 428.25 L 696 431.25 L 678 431.25 M 699 428.25 L 717 428.25 L 717 431.25 L 699 431.25 M 720 428.25 L 738 428.25 L 738 431.25 L 720 431.25 M 741 428.25 L 759 428.25 L 759 431.25 L 741 431.25 M 762 428.25 L 780 428.25 L 780 431.25 L 762 431.25 M 783 428.25 L 801 428.25 L 801 431.25 L 783 431.25 M 804 428.25 L 822 428.25 L 822 431.25 L 804 431.25 M 825 428.25 L 843 428.25 L 843 431.25 L 825 431.25 M 846 428.25 L 864 428.25 L 864 431.25 L 846 431.25 M 867 428.25 L 885 428.25 L 885 431.25 L 867 431.25 M 888 428.25 L 906 428.25 L 906 431.25 L 888 431.25 M 909 428.25 L 927 428.25 L 927 431.25 L 909 431.25 M 930 428.25 L 948 428.25 L 948 431.25 L 930 431.25 M 951 428.25 L 969 428.25 L 969 431.25 L 951 431.25 " fill-opacity="1" fill-rule="nonzero"/><path fill="#000000" d="M 468 436.550781 L 486 436.550781 L 486 439.550781 L 468 439.550781 M 489 436.550781 L 507 436.550781 L 507 439.550781 L 489 439.550781 M 510 436.550781 L 528 436.550781 L 528 439.550781 L 510 439.550781 M 531 436.550781 L 549 436.550781 L 549 439.550781 L 531 439.550781 M 552 436.550781 L 570 436.550781 L 570 439.550781 L 552 439.550781 M 573 436.550781 L 591 436.550781 L 591 439.550781 L 573 439.550781 M 594 436.550781 L 612 436.550781 L 612 439.550781 L 594 439.550781 M 615 436.550781 L 633 436.550781 L 633 439.550781 L 615 439.550781 M 636 436.550781 L 654 436.550781 L 654 439.550781 L 636 439.550781 M 657 436.550781 L 675 436.550781 L 675 439.550781 L 657 439.550781 M 678 436.550781 L 696 436.550781 L 696 439.550781 L 678 439.550781 M 699 436.550781 L 717 436.550781 L 717 439.550781 L 699 439.550781 M 720 436.550781 L 738 436.550781 L 738 439.550781 L 720 439.550781 M 741 436.550781 L 759 436.550781 L 759 439.550781 L 741 439.550781 M 762 436.550781 L 780 436.550781 L 780 439.550781 L 762 439.550781 M 783 436.550781 L 801 436.550781 L 801 439.550781 L 783 439.550781 M 804 436.550781 L 822 436.550781 L 822 439.550781 L 804 439.550781 M 825 436.550781 L 843 436.550781 L 843 439.550781 L 825 439.550781 M 846 436.550781 L 864 436.550781 L 864 439.550781 L 846 439.550781 M 867 436.550781 L 885 436.550781 L 885 439.550781 L 867 439.550781 M 888 436.550781 L 906 436.550781 L 906 439.550781 L 888 439.550781 M 909 436.550781 L 927 436.550781 L 927 439.550781 L 909 439.550781 M 930 436.550781 L 948 436.550781 L 948 439.550781 L 930 439.550781 M 951 436.550781 L 969 436.550781 L 969 439.550781 L 951 439.550781 " fill-opacity="1" fill-rule="nonzero"/></svg>