<svg xmlns="http://www.w3.org/2000/svg" xmlns:xlink="http://www.w3.org/1999/xlink" width="500" zoomAndPan="magnify" viewBox="0 0 375 374.999991" height="500" preserveAspectRatio="xMidYMid meet" version="1.0"><defs><g/></defs><g fill="#004aad" fill-opacity="1"><g transform="translate(55.081441, 248.277147)"><g><path d="M 102.953125 -35.109375 C 99.984375 -9.429688 82.78125 3.40625 51.34375 3.40625 C 34.925781 3.40625 20.253906 -0.257812 7.328125 -7.59375 L 7.328125 -53.4375 L 34.046875 -55.265625 L 34.046875 -34.578125 C 34.046875 -31.960938 34.394531 -30.039062 35.09375 -28.8125 C 35.800781 -27.59375 37.640625 -26.414062 40.609375 -25.28125 C 43.578125 -24.144531 48.160156 -23.578125 54.359375 -23.578125 C 60.554688 -23.578125 65.050781 -25.453125 67.84375 -29.203125 C 70.632812 -32.960938 72.03125 -39.03125 72.03125 -47.40625 L 72.03125 -150.890625 L 51.609375 -151.9375 L 51.609375 -174.203125 L 120.234375 -174.203125 L 120.234375 -152.984375 L 111.59375 -152.1875 C 106.53125 -151.664062 104 -148.960938 104 -144.078125 L 104 -62.609375 C 104 -50.210938 103.648438 -41.046875 102.953125 -35.109375 Z M 102.953125 -35.109375 "/></g></g></g><g fill="#ff3131" fill-opacity="1"><g transform="translate(179.258715, 248.277147)"><g><path d="M 132.8125 0 L 8.375 0 L 8.375 -21.21875 L 17.03125 -22 C 22.09375 -22.53125 24.625 -24.976562 24.625 -29.34375 L 24.625 -151.140625 L 9.6875 -151.9375 L 9.6875 -174.203125 L 72.828125 -174.203125 L 72.828125 -152.984375 L 64.171875 -152.1875 C 59.109375 -151.664062 56.578125 -148.875 56.578125 -143.8125 L 56.578125 -26.984375 L 100.0625 -26.984375 C 102.507812 -26.984375 104.125 -27.632812 104.90625 -28.9375 C 105.695312 -30.25 106.09375 -32.390625 106.09375 -35.359375 L 106.09375 -53.703125 L 132.8125 -51.859375 Z M 132.8125 0 "/></g></g></g><g fill="#ff3131" fill-opacity="1"><g transform="translate(62.67876, 308.420168)"><g><path d="M 30.765625 -39.4375 C 30.242188 -40.332031 28.316406 -40.78125 24.984375 -40.78125 C 20.609375 -40.78125 17.289062 -39.296875 15.03125 -36.328125 C 12.769531 -33.367188 11.640625 -29.09375 11.640625 -23.5 C 11.640625 -11.875 15.992188 -6.0625 24.703125 -6.0625 C 24.835938 -6.0625 25.457031 -6.0625 26.5625 -6.0625 C 27.664062 -6.0625 28.710938 -6.210938 29.703125 -6.515625 C 30.691406 -6.828125 31.28125 -7.144531 31.46875 -7.46875 C 31.65625 -7.800781 31.75 -8.320312 31.75 -9.03125 L 31.75 -14.671875 L 38.953125 -14.1875 L 38.953125 -1.96875 C 35.285156 -0.0390625 30.628906 0.921875 24.984375 0.921875 C 17.785156 0.921875 12.289062 -1.097656 8.5 -5.140625 C 4.71875 -9.191406 2.828125 -15.21875 2.828125 -23.21875 C 2.828125 -27.632812 3.460938 -31.488281 4.734375 -34.78125 C 6.003906 -38.082031 7.71875 -40.648438 9.875 -42.484375 C 14.113281 -46.003906 19.148438 -47.765625 24.984375 -47.765625 C 29.679688 -47.765625 34.101562 -46.800781 38.25 -44.875 L 38.25 -32.875 L 31.046875 -32.390625 L 31.046875 -37.890625 C 31.046875 -38.597656 30.953125 -39.113281 30.765625 -39.4375 Z M 30.765625 -39.4375 "/></g></g></g><g fill="#ff3131" fill-opacity="1"><g transform="translate(105.152784, 308.420168)"><g><path d="M 34.015625 -34.078125 L 34.015625 -7.828125 C 34.015625 -7.078125 34.140625 -6.5625 34.390625 -6.28125 C 34.648438 -6 35.113281 -5.832031 35.78125 -5.78125 L 38.03125 -5.640625 L 38.03125 0 L 26.8125 0 L 26.8125 -4.09375 L 26.609375 -4.15625 C 24.253906 -0.769531 21.03125 0.921875 16.9375 0.921875 C 12.132812 0.921875 8.582031 -0.601562 6.28125 -3.65625 C 3.976562 -6.71875 2.828125 -10.910156 2.828125 -16.234375 C 2.828125 -22.628906 4.378906 -27.613281 7.484375 -31.1875 C 10.585938 -34.757812 15.242188 -36.546875 21.453125 -36.546875 C 25.453125 -36.546875 29.640625 -35.722656 34.015625 -34.078125 Z M 25.828125 -11.21875 L 25.828125 -29.5 C 24.503906 -30.101562 22.691406 -30.40625 20.390625 -30.40625 C 17.242188 -30.40625 14.960938 -29.132812 13.546875 -26.59375 C 12.140625 -24.0625 11.4375 -20.703125 11.4375 -16.515625 C 11.4375 -8.890625 13.878906 -5.078125 18.765625 -5.078125 C 20.835938 -5.078125 22.53125 -5.703125 23.84375 -6.953125 C 25.164062 -8.203125 25.828125 -9.625 25.828125 -11.21875 Z M 25.828125 -11.21875 "/></g></g></g><g fill="#ff3131" fill-opacity="1"><g transform="translate(145.157391, 308.420168)"><g><path d="M 20.8125 -30.125 C 19.6875 -30.550781 18.320312 -30.765625 16.71875 -30.765625 C 15.125 -30.765625 13.84375 -30.398438 12.875 -29.671875 C 11.914062 -28.941406 11.4375 -28.046875 11.4375 -26.984375 C 11.4375 -25.929688 11.609375 -25.109375 11.953125 -24.515625 C 12.304688 -23.929688 12.863281 -23.425781 13.625 -23 C 14.789062 -22.394531 16.195312 -21.867188 17.84375 -21.421875 C 19.5 -20.972656 20.722656 -20.617188 21.515625 -20.359375 C 22.316406 -20.097656 23.316406 -19.660156 24.515625 -19.046875 C 25.710938 -18.441406 26.617188 -17.785156 27.234375 -17.078125 C 28.878906 -15.335938 29.703125 -13.101562 29.703125 -10.375 C 29.703125 -6.84375 28.421875 -4.078125 25.859375 -2.078125 C 23.296875 -0.078125 20.039062 0.921875 16.09375 0.921875 C 10.351562 0.921875 6.023438 0.191406 3.109375 -1.265625 L 3.109375 -11.078125 L 9.453125 -11.578125 L 9.453125 -8.1875 C 9.453125 -6.113281 11.425781 -5.078125 15.375 -5.078125 C 19.332031 -5.078125 21.3125 -6.515625 21.3125 -9.390625 C 21.3125 -10.421875 20.96875 -11.265625 20.28125 -11.921875 C 19.601562 -12.578125 18.929688 -13.023438 18.265625 -13.265625 C 17.609375 -13.503906 16.820312 -13.738281 15.90625 -13.96875 C 14.988281 -14.207031 14.09375 -14.441406 13.21875 -14.671875 C 12.351562 -14.910156 11.414062 -15.226562 10.40625 -15.625 C 9.394531 -16.03125 8.28125 -16.609375 7.0625 -17.359375 C 4.65625 -18.910156 3.453125 -21.507812 3.453125 -25.15625 C 3.453125 -28.800781 4.742188 -31.609375 7.328125 -33.578125 C 9.921875 -35.554688 13.179688 -36.546875 17.109375 -36.546875 C 21.035156 -36.546875 24.929688 -35.609375 28.796875 -33.734375 L 28.796875 -25.265625 L 22.4375 -24.765625 L 22.4375 -27.734375 C 22.4375 -28.910156 21.894531 -29.707031 20.8125 -30.125 Z M 20.8125 -30.125 "/></g></g></g><g fill="#ff3131" fill-opacity="1"><g transform="translate(176.977662, 308.420168)"><g><path d="M 34.015625 -34.078125 L 34.015625 -7.828125 C 34.015625 -7.078125 34.140625 -6.5625 34.390625 -6.28125 C 34.648438 -6 35.113281 -5.832031 35.78125 -5.78125 L 38.03125 -5.640625 L 38.03125 0 L 26.8125 0 L 26.8125 -4.09375 L 26.609375 -4.15625 C 24.253906 -0.769531 21.03125 0.921875 16.9375 0.921875 C 12.132812 0.921875 8.582031 -0.601562 6.28125 -3.65625 C 3.976562 -6.71875 2.828125 -10.910156 2.828125 -16.234375 C 2.828125 -22.628906 4.378906 -27.613281 7.484375 -31.1875 C 10.585938 -34.757812 15.242188 -36.546875 21.453125 -36.546875 C 25.453125 -36.546875 29.640625 -35.722656 34.015625 -34.078125 Z M 25.828125 -11.21875 L 25.828125 -29.5 C 24.503906 -30.101562 22.691406 -30.40625 20.390625 -30.40625 C 17.242188 -30.40625 14.960938 -29.132812 13.546875 -26.59375 C 12.140625 -24.0625 11.4375 -20.703125 11.4375 -16.515625 C 11.4375 -8.890625 13.878906 -5.078125 18.765625 -5.078125 C 20.835938 -5.078125 22.53125 -5.703125 23.84375 -6.953125 C 25.164062 -8.203125 25.828125 -9.625 25.828125 -11.21875 Z M 25.828125 -11.21875 "/></g></g></g><g fill="#ff3131" fill-opacity="1"><g transform="translate(216.982268, 308.420168)"><g><path d="M 6.703125 -7.90625 L 6.703125 -27.453125 C 6.703125 -28.203125 6.570312 -28.726562 6.3125 -29.03125 C 6.050781 -29.34375 5.59375 -29.519531 4.9375 -29.5625 L 1.96875 -29.78125 L 1.96875 -35.5 L 13.90625 -35.5 L 13.90625 -30.203125 C 14.75 -32.035156 16.0625 -33.550781 17.84375 -34.75 C 19.632812 -35.945312 21.691406 -36.546875 24.015625 -36.546875 C 26.347656 -36.546875 28.570312 -36.03125 30.6875 -35 L 30.6875 -24.484375 L 24.125 -23.984375 L 24.125 -27.234375 C 24.125 -28.171875 23.890625 -28.757812 23.421875 -29 C 22.910156 -29.238281 22.273438 -29.359375 21.515625 -29.359375 C 19.640625 -29.359375 18.097656 -28.6875 16.890625 -27.34375 C 15.691406 -26 15.09375 -24.296875 15.09375 -22.234375 L 15.09375 -5.859375 L 21.234375 -5.578125 L 21.234375 0 L 2.328125 0 L 2.328125 -5.359375 L 4.65625 -5.578125 C 5.363281 -5.671875 5.878906 -5.867188 6.203125 -6.171875 C 6.535156 -6.484375 6.703125 -7.0625 6.703125 -7.90625 Z M 6.703125 -7.90625 "/></g></g></g><g fill="#ff3131" fill-opacity="1"><g transform="translate(249.578623, 308.420168)"><g><path d="M 15.09375 -35.5 L 15.09375 -5.859375 L 19.125 -5.640625 L 19.125 0 L 2.328125 0 L 2.328125 -5.359375 L 4.65625 -5.578125 C 6.019531 -5.710938 6.703125 -6.460938 6.703125 -7.828125 L 6.703125 -27.453125 C 6.703125 -28.242188 6.570312 -28.78125 6.3125 -29.0625 C 6.050781 -29.351562 5.59375 -29.5 4.9375 -29.5 L 2.46875 -29.640625 L 2.46875 -35.5 Z M 6.203125 -41.59375 C 5.222656 -42.5625 4.734375 -43.796875 4.734375 -45.296875 C 4.734375 -46.804688 5.222656 -48.066406 6.203125 -49.078125 C 7.191406 -50.085938 8.484375 -50.59375 10.078125 -50.59375 C 11.679688 -50.59375 12.988281 -50.085938 14 -49.078125 C 15.019531 -48.066406 15.53125 -46.804688 15.53125 -45.296875 C 15.53125 -43.796875 15.019531 -42.5625 14 -41.59375 C 12.988281 -40.632812 11.679688 -40.15625 10.078125 -40.15625 C 8.484375 -40.15625 7.191406 -40.632812 6.203125 -41.59375 Z M 6.203125 -41.59375 "/></g></g></g><g fill="#ff3131" fill-opacity="1"><g transform="translate(270.462851, 308.420168)"><g><path d="M 1.90625 -29.84375 L 1.90625 -35.5 L 13.828125 -35.5 L 13.828125 -30.90625 C 15.054688 -32.644531 16.679688 -34.019531 18.703125 -35.03125 C 20.722656 -36.039062 22.910156 -36.546875 25.265625 -36.546875 C 28.835938 -36.546875 31.597656 -35.519531 33.546875 -33.46875 C 35.503906 -31.425781 36.484375 -28.363281 36.484375 -24.28125 L 36.484375 -5.859375 L 40.5 -5.640625 L 40.5 0 L 23.703125 0 L 23.703125 -5.359375 L 26.03125 -5.578125 C 26.738281 -5.671875 27.253906 -5.867188 27.578125 -6.171875 C 27.910156 -6.484375 28.078125 -7.0625 28.078125 -7.90625 L 28.078125 -22.4375 C 28.078125 -25.019531 27.675781 -26.9375 26.875 -28.1875 C 26.082031 -29.4375 24.566406 -30.0625 22.328125 -30.0625 C 20.097656 -30.0625 18.320312 -29.351562 17 -27.9375 C 15.6875 -26.53125 15.03125 -24.863281 15.03125 -22.9375 L 15.03125 -5.859375 L 19.046875 -5.640625 L 19.046875 0 L 2.265625 0 L 2.265625 -5.359375 L 4.59375 -5.578125 C 5.289062 -5.671875 5.804688 -5.867188 6.140625 -6.171875 C 6.472656 -6.484375 6.640625 -7.0625 6.640625 -7.90625 L 6.640625 -27.453125 C 6.640625 -28.859375 6.050781 -29.585938 4.875 -29.640625 Z M 1.90625 -29.84375 "/></g></g></g></svg>