<svg xmlns="http://www.w3.org/2000/svg" xmlns:xlink="http://www.w3.org/1999/xlink" width="1920" zoomAndPan="magnify" viewBox="0 0 1440 809.999993" height="1080" preserveAspectRatio="xMidYMid meet" version="1.0"><defs><clipPath id="cb29823877"><path d="M 716.699219 405.328125 L 722.699219 405.328125 L 722.699219 411.328125 L 716.699219 411.328125 Z M 716.699219 405.328125 " clip-rule="nonzero"/></clipPath><clipPath id="4d1feac72d"><path d="M 719.699219 405.328125 C 718.042969 405.328125 716.699219 406.671875 716.699219 408.328125 C 716.699219 409.988281 718.042969 411.328125 719.699219 411.328125 C 721.355469 411.328125 722.699219 409.988281 722.699219 408.328125 C 722.699219 406.671875 721.355469 405.328125 719.699219 405.328125 Z M 719.699219 405.328125 " clip-rule="nonzero"/></clipPath><clipPath id="fce2587721"><path d="M 578 403 L 861.421875 403 L 861.421875 518.011719 L 578 518.011719 Z M 578 403 " clip-rule="nonzero"/></clipPath><clipPath id="95c0238952"><path d="M 608 292.261719 L 825 292.261719 L 825 395 L 608 395 Z M 608 292.261719 " clip-rule="nonzero"/></clipPath></defs><g clip-path="url(#cb29823877)"><g clip-path="url(#4d1feac72d)"><path fill="#a04545" d="M 716.699219 405.328125 L 722.699219 405.328125 L 722.699219 411.328125 L 716.699219 411.328125 Z M 716.699219 405.328125 " fill-opacity="1" fill-rule="nonzero"/></g></g><g clip-path="url(#fce2587721)"><path fill="#a04545" d="M 823.484375 425.640625 C 821.71875 425.640625 819.949219 425.863281 818.40625 426.082031 C 811.339844 413.9375 798.308594 405.988281 784.175781 405.988281 C 773.355469 405.988281 763.417969 410.402344 755.910156 417.910156 C 746.195312 408.636719 733.167969 403.335938 719.695312 403.335938 C 706.226562 403.335938 693.195312 408.636719 683.480469 417.910156 C 675.972656 410.183594 666.035156 405.988281 655.214844 405.988281 C 641.082031 405.988281 628.054688 413.714844 620.988281 426.082031 C 619.21875 425.863281 617.453125 425.640625 615.90625 425.640625 C 595.148438 425.640625 578.367188 442.863281 578.367188 464.0625 C 578.367188 485.261719 595.148438 502.488281 615.90625 502.488281 C 619.882812 502.488281 623.636719 501.824219 627.390625 500.722656 C 635.78125 511.761719 648.589844 518.386719 662.28125 518.386719 C 674.207031 518.386719 685.46875 513.527344 693.636719 504.917969 C 701.589844 509.554688 710.421875 511.984375 719.695312 511.984375 C 728.96875 511.984375 737.804688 509.554688 745.753906 504.917969 C 753.921875 513.527344 765.1875 518.386719 777.109375 518.386719 C 791.023438 518.386719 803.832031 511.761719 812 500.722656 C 815.753906 501.824219 819.507812 502.488281 823.484375 502.488281 C 844.242188 502.488281 861.023438 485.261719 861.023438 464.0625 C 861.023438 442.863281 844.242188 425.640625 823.484375 425.640625 Z M 823.484375 493.433594 C 819.507812 493.433594 815.753906 492.550781 812.222656 491.003906 C 810.234375 490.121094 807.804688 490.785156 806.699219 492.773438 C 800.074219 503.148438 789.035156 509.332031 777.109375 509.332031 C 766.511719 509.332031 756.792969 504.476562 749.949219 496.304688 C 749.066406 495.199219 747.742188 494.757812 746.414062 494.757812 C 745.53125 494.757812 744.648438 494.980469 743.988281 495.421875 C 736.699219 500.28125 728.308594 502.929688 719.695312 502.929688 C 711.082031 502.929688 702.472656 500.28125 695.40625 495.421875 C 693.417969 494.097656 690.988281 494.539062 689.441406 496.304688 C 682.597656 504.695312 672.878906 509.332031 662.28125 509.332031 C 650.355469 509.332031 639.316406 503.148438 632.691406 492.773438 C 631.585938 491.003906 629.15625 490.121094 627.171875 491.003906 C 623.636719 492.550781 619.882812 493.433594 615.90625 493.433594 C 600.007812 493.433594 587.199219 480.183594 587.199219 463.84375 C 587.199219 447.503906 600.007812 434.253906 615.90625 434.253906 C 618.117188 434.253906 620.324219 434.472656 622.53125 435.136719 C 624.519531 435.578125 626.726562 434.695312 627.613281 432.707031 C 632.910156 421.664062 643.511719 414.597656 655.4375 414.597656 C 665.152344 414.597656 673.984375 419.238281 679.945312 426.964844 C 680.832031 428.070312 681.933594 428.730469 683.257812 428.730469 C 684.585938 428.730469 685.910156 428.289062 686.792969 427.1875 C 695.183594 417.46875 707.328125 411.949219 719.917969 411.949219 C 732.503906 411.949219 744.648438 417.46875 753.039062 427.1875 C 753.921875 428.289062 755.25 428.730469 756.574219 428.730469 C 757.898438 428.730469 759.222656 428.070312 759.886719 426.964844 C 765.847656 419.015625 774.679688 414.597656 784.398438 414.597656 C 796.320312 414.597656 806.921875 421.445312 812.222656 432.707031 C 813.105469 434.695312 815.3125 435.578125 817.300781 435.136719 C 819.507812 434.695312 821.71875 434.253906 823.925781 434.253906 C 839.824219 434.253906 852.632812 447.503906 852.632812 463.84375 C 852.191406 480.183594 839.382812 493.433594 823.484375 493.433594 Z M 823.484375 493.433594 " fill-opacity="1" fill-rule="nonzero"/></g><path fill="#a04545" d="M 615.90625 443.308594 C 604.867188 443.308594 596.035156 452.582031 596.035156 464.0625 C 596.035156 466.492188 598.019531 468.480469 600.449219 468.480469 C 602.878906 468.480469 604.867188 466.492188 604.867188 464.0625 C 604.867188 461.636719 605.527344 459.207031 606.855469 457.441406 L 609.945312 454.128906 C 611.710938 452.800781 613.699219 452.140625 615.90625 452.140625 C 618.335938 452.140625 620.324219 450.152344 620.324219 447.722656 C 620.324219 445.292969 618.335938 443.308594 615.90625 443.308594 Z M 615.90625 443.308594 " fill-opacity="1" fill-rule="nonzero"/><path fill="#a04545" d="M 662.28125 491.667969 C 656.320312 491.667969 650.796875 488.574219 647.707031 483.277344 C 646.382812 481.289062 643.730469 480.625 641.523438 481.949219 C 639.535156 483.277344 638.875 485.925781 640.199219 488.132812 C 645.058594 495.863281 653.449219 500.5 662.28125 500.5 C 664.710938 500.5 666.699219 498.511719 666.699219 496.082031 C 666.699219 493.65625 664.710938 491.667969 662.28125 491.667969 Z M 662.28125 491.667969 " fill-opacity="1" fill-rule="nonzero"/><path fill="#a04545" d="M 797.867188 481.949219 C 795.878906 480.625 793.007812 481.289062 791.683594 483.277344 C 788.371094 488.574219 782.851562 491.667969 777.109375 491.667969 C 774.679688 491.667969 772.695312 493.65625 772.695312 496.082031 C 772.695312 498.511719 774.679688 500.5 777.109375 500.5 C 785.941406 500.5 794.335938 495.863281 799.191406 488.132812 C 800.519531 485.925781 799.855469 483.277344 797.867188 481.949219 Z M 797.867188 481.949219 " fill-opacity="1" fill-rule="nonzero"/><path fill="#a04545" d="M 823.484375 443.308594 C 821.054688 443.308594 819.066406 445.292969 819.066406 447.722656 C 819.066406 450.152344 821.054688 452.140625 823.484375 452.140625 C 825.691406 452.140625 827.898438 452.800781 829.445312 454.128906 L 832.539062 457.441406 C 833.863281 459.425781 834.523438 461.636719 834.523438 464.0625 C 834.523438 466.492188 836.511719 468.480469 838.941406 468.480469 C 841.371094 468.480469 843.359375 466.492188 843.359375 464.0625 C 843.359375 452.582031 834.523438 443.308594 823.484375 443.308594 Z M 823.484375 443.308594 " fill-opacity="1" fill-rule="nonzero"/><g clip-path="url(#95c0238952)"><path fill="#a04545" d="M 610.386719 370.214844 C 637.105469 384.789062 664.046875 392.957031 690.769531 394.285156 C 693.636719 394.503906 696.949219 394.503906 700.261719 394.503906 C 714.175781 394.503906 731.839844 392.957031 749.507812 386.996094 C 750.832031 386.554688 751.714844 385.449219 752.15625 384.347656 L 757.015625 370.433594 C 759.886719 372.644531 763.640625 375.070312 767.835938 376.839844 C 769.160156 377.28125 770.707031 377.28125 771.808594 376.398438 C 774.902344 374.410156 777.550781 372.421875 779.980469 370.65625 C 791.683594 361.160156 802.0625 347.027344 800.960938 332.011719 C 798.089844 334 794.996094 335.984375 791.90625 337.972656 C 789.917969 350.117188 778.65625 360.277344 774.460938 363.808594 C 772.914062 365.132812 770.925781 366.460938 768.941406 367.785156 C 762.757812 364.691406 757.675781 359.835938 757.675781 359.835938 C 756.574219 358.730469 755.027344 358.289062 753.480469 358.730469 C 751.9375 359.171875 750.832031 360.054688 750.390625 361.601562 L 744.207031 379.488281 C 724.113281 385.890625 704.238281 386.332031 690.769531 385.671875 C 668.90625 384.566406 646.601562 378.605469 624.300781 367.785156 C 637.769531 363.367188 663.386719 353.210938 702.691406 329.582031 C 703.796875 328.917969 705.121094 328.257812 706.226562 327.375 L 717.929688 335.765625 C 719.253906 336.648438 720.800781 336.867188 722.34375 336.207031 C 723.671875 335.542969 724.773438 334.21875 724.996094 332.671875 C 724.996094 332.671875 725.878906 324.503906 729.191406 316.554688 C 738.464844 313.019531 747.078125 311.03125 755.25 310.589844 C 760.769531 310.371094 777.550781 310.148438 786.605469 320.527344 C 748.183594 345.480469 700.703125 354.753906 700.042969 354.753906 C 697.613281 355.199219 696.066406 357.40625 696.507812 359.835938 C 696.949219 362.042969 698.71875 363.367188 700.925781 363.367188 C 701.144531 363.367188 701.367188 363.367188 701.808594 363.367188 C 705.121094 362.707031 783.734375 347.46875 823.703125 299.992188 C 825.25 298.222656 825.03125 295.355469 823.261719 293.808594 C 821.496094 292.261719 818.625 292.484375 817.078125 294.25 C 810.675781 301.980469 802.945312 308.824219 794.777344 314.785156 C 786.828125 305.070312 772.914062 299.992188 755.691406 301.09375 C 745.972656 301.757812 736.035156 303.964844 725.214844 308.382812 C 724.113281 308.824219 723.230469 309.707031 722.789062 310.589844 C 720.578125 315.449219 719.253906 320.085938 718.589844 323.839844 L 710.199219 317.878906 C 708.875 316.996094 706.886719 316.773438 705.5625 317.65625 C 703.355469 318.761719 701.367188 320.085938 699.378906 321.410156 C 639.316406 357.40625 612.152344 361.820312 611.933594 361.820312 C 609.945312 362.042969 608.621094 363.589844 608.179688 365.355469 C 607.738281 367.34375 608.839844 369.332031 610.386719 370.214844 Z M 610.386719 370.214844 " fill-opacity="1" fill-rule="nonzero"/></g></svg>