<svg xmlns="http://www.w3.org/2000/svg" xmlns:xlink="http://www.w3.org/1999/xlink" width="500" zoomAndPan="magnify" viewBox="0 0 375 374.999991" height="500" preserveAspectRatio="xMidYMid meet" version="1.0"><defs><g/></defs><g fill="#004aad" fill-opacity="1"><g transform="translate(30.143634, 213.707792)"><g><path d="M 43.203125 -117.34375 L 72 -30.734375 L 73.078125 -30.734375 L 103.15625 -123.796875 L 90.046875 -124.65625 L 90.046875 -142.921875 L 139.484375 -142.921875 L 139.484375 -125.515625 L 132.390625 -124.875 C 130.523438 -124.726562 129.160156 -124.1875 128.296875 -123.25 C 127.441406 -122.320312 126.585938 -120.710938 125.734375 -118.421875 L 85.109375 0 L 57.171875 0 L 13.328125 -124.015625 L 1.078125 -124.65625 L 1.078125 -142.921875 L 56.53125 -142.921875 L 56.53125 -125.515625 L 49.4375 -124.875 C 44.988281 -124.582031 42.765625 -122.863281 42.765625 -119.71875 C 42.765625 -119 42.910156 -118.207031 43.203125 -117.34375 Z M 43.203125 -117.34375 "/></g></g></g><g fill="#ff3131" fill-opacity="1"><g transform="translate(170.71011, 213.707792)"><g><path d="M 6.875 0 L 6.875 -17.40625 L 14.609375 -18.046875 C 18.335938 -18.335938 20.203125 -20.347656 20.203125 -24.078125 L 20.203125 -124.015625 L 7.953125 -124.65625 L 7.953125 -142.921875 L 46.640625 -142.921875 L 107.46875 -44.28125 L 107.890625 -44.28125 L 107.890625 -124.015625 L 93.703125 -124.65625 L 93.703125 -142.921875 L 146.140625 -142.921875 L 146.140625 -125.515625 L 138.40625 -124.875 C 134.96875 -124.582031 133.25 -122.359375 133.25 -118.203125 L 133.25 0 L 108.109375 0 L 46 -100.15625 L 45.5625 -100.15625 L 45.5625 -18.90625 L 59.53125 -18.265625 L 59.53125 0 Z M 6.875 0 "/></g></g></g><g fill="#ff3131" fill-opacity="1"><g transform="translate(60.994766, 306.484995)"><g><path d="M 20.640625 -7.703125 C 27.484375 -7.703125 30.90625 -10.441406 30.90625 -15.921875 C 30.90625 -18.773438 29.394531 -20.890625 26.375 -22.265625 C 24.769531 -23.066406 22.695312 -23.804688 20.15625 -24.484375 C 17.625 -25.171875 15.515625 -25.867188 13.828125 -26.578125 C 12.140625 -27.296875 10.441406 -28.285156 8.734375 -29.546875 C 5.367188 -32.054688 3.6875 -35.921875 3.6875 -41.140625 C 3.6875 -46.367188 5.5 -50.476562 9.125 -53.46875 C 12.75 -56.46875 17.484375 -57.96875 23.328125 -57.96875 C 29.179688 -57.96875 34.617188 -56.796875 39.640625 -54.453125 L 39.640625 -41.609375 L 30.90625 -41.015625 L 30.90625 -45.984375 C 30.90625 -46.835938 30.789062 -47.460938 30.5625 -47.859375 C 29.9375 -48.941406 27.925781 -49.484375 24.53125 -49.484375 C 21.132812 -49.484375 18.625 -48.882812 17 -47.6875 C 15.375 -46.488281 14.5625 -44.632812 14.5625 -42.125 C 14.5625 -40.300781 15.242188 -38.703125 16.609375 -37.328125 C 17.523438 -36.421875 18.878906 -35.664062 20.671875 -35.0625 C 22.472656 -34.46875 24.382812 -33.851562 26.40625 -33.21875 C 28.4375 -32.59375 30.238281 -31.90625 31.8125 -31.15625 C 33.382812 -30.414062 35.023438 -29.390625 36.734375 -28.078125 C 40.210938 -25.515625 41.953125 -21.550781 41.953125 -16.1875 C 41.953125 -10.820312 40.023438 -6.597656 36.171875 -3.515625 C 32.316406 -0.429688 27.234375 1.109375 20.921875 1.109375 C 14.617188 1.109375 8.957031 -0.0546875 3.9375 -2.390625 L 3.9375 -15.921875 L 12.671875 -16.53125 L 12.671875 -11.296875 C 12.671875 -10.441406 12.785156 -9.8125 13.015625 -9.40625 C 13.242188 -9.007812 13.941406 -8.625 15.109375 -8.25 C 16.285156 -7.882812 18.128906 -7.703125 20.640625 -7.703125 Z M 20.640625 -7.703125 "/></g></g></g><g fill="#ff3131" fill-opacity="1"><g transform="translate(105.688973, 306.484995)"><g><path d="M 2.734375 0 L 2.734375 -6.9375 L 5.5625 -7.1875 C 7.21875 -7.363281 8.046875 -8.164062 8.046875 -9.59375 L 8.046875 -49.40625 L 3.171875 -49.65625 L 3.171875 -56.9375 L 27.65625 -56.9375 C 34.050781 -56.9375 39.03125 -55.4375 42.59375 -52.4375 C 46.164062 -49.445312 47.953125 -44.953125 47.953125 -38.953125 C 47.953125 -32.960938 45.925781 -28.296875 41.875 -24.953125 C 37.820312 -21.617188 32.453125 -19.953125 25.765625 -19.953125 L 18.5 -19.953125 L 18.5 -7.53125 L 26.71875 -7.28125 L 26.71875 0 Z M 18.5 -28.25 L 24.65625 -28.25 C 32.988281 -28.25 37.15625 -31.648438 37.15625 -38.453125 C 37.15625 -42.554688 36.082031 -45.28125 33.9375 -46.625 C 31.800781 -47.96875 28.394531 -48.640625 23.71875 -48.640625 L 18.5 -48.640625 Z M 18.5 -28.25 "/></g></g></g><g fill="#ff3131" fill-opacity="1"><g transform="translate(156.205409, 306.484995)"><g><path d="M 29.578125 -57.96875 C 36.347656 -57.96875 42.015625 -55.566406 46.578125 -50.765625 C 51.148438 -45.972656 53.4375 -38.65625 53.4375 -28.8125 C 53.4375 -18.96875 51.164062 -11.519531 46.625 -6.46875 C 42.082031 -1.414062 35.941406 1.109375 28.203125 1.109375 C 20.472656 1.109375 14.410156 -1.398438 10.015625 -6.421875 C 5.617188 -11.441406 3.421875 -18.75 3.421875 -28.34375 C 3.421875 -33.59375 4.191406 -38.203125 5.734375 -42.171875 C 7.273438 -46.140625 9.300781 -49.207031 11.8125 -51.375 C 16.894531 -55.769531 22.816406 -57.96875 29.578125 -57.96875 Z M 14.125 -28.765625 C 14.125 -14.609375 19.035156 -7.53125 28.859375 -7.53125 C 34.109375 -7.53125 37.789062 -9.703125 39.90625 -14.046875 C 41.84375 -17.867188 42.8125 -22.546875 42.8125 -28.078125 C 42.8125 -33.046875 41.957031 -37.613281 40.25 -41.78125 C 39.269531 -44.0625 37.796875 -45.859375 35.828125 -47.171875 C 33.859375 -48.492188 31.304688 -49.15625 28.171875 -49.15625 C 25.035156 -49.15625 22.335938 -48.125 20.078125 -46.0625 C 17.828125 -44.007812 16.269531 -41.523438 15.40625 -38.609375 C 14.550781 -35.703125 14.125 -32.421875 14.125 -28.765625 Z M 14.125 -28.765625 "/></g></g></g><g fill="#ff3131" fill-opacity="1"><g transform="translate(213.057809, 306.484995)"><g><path d="M 2.734375 0 L 2.734375 -6.9375 L 5.5625 -7.1875 C 7.21875 -7.363281 8.046875 -8.164062 8.046875 -9.59375 L 8.046875 -49.40625 L 3.171875 -49.65625 L 3.171875 -56.9375 L 26.546875 -56.9375 C 33.160156 -56.9375 38.238281 -55.707031 41.78125 -53.25 C 45.320312 -50.800781 47.09375 -46.78125 47.09375 -41.1875 C 47.09375 -37.300781 46.078125 -34.101562 44.046875 -31.59375 C 42.023438 -29.082031 39.613281 -27.253906 36.8125 -26.109375 C 38.875 -25.367188 40.503906 -23.628906 41.703125 -20.890625 L 47.859375 -7.453125 L 52.75 -7.28125 L 52.75 0 L 31.59375 0 L 31.59375 -6.9375 L 34.078125 -7.1875 C 35.390625 -7.363281 36.046875 -7.878906 36.046875 -8.734375 C 36.046875 -9.078125 35.929688 -9.476562 35.703125 -9.9375 L 31.6875 -18.5 C 31.050781 -19.925781 30.347656 -20.9375 29.578125 -21.53125 C 28.804688 -22.132812 27.707031 -22.4375 26.28125 -22.4375 L 18.5 -22.4375 L 18.5 -7.53125 L 24.0625 -7.28125 L 24.0625 0 Z M 18.5 -30.5625 L 25.9375 -30.5625 C 32.957031 -30.5625 36.46875 -33.703125 36.46875 -39.984375 C 36.46875 -43.578125 35.539062 -45.914062 33.6875 -47 C 31.832031 -48.09375 28.851562 -48.640625 24.75 -48.640625 L 18.5 -48.640625 Z M 18.5 -30.5625 "/></g></g></g><g fill="#ff3131" fill-opacity="1"><g transform="translate(266.656605, 306.484995)"><g><path d="M 18.671875 -9.59375 L 18.671875 -48.46875 L 11.984375 -48.46875 C 10.671875 -48.46875 10.015625 -47.582031 10.015625 -45.8125 L 10.015625 -41.78125 L 1.28125 -42.390625 L 1.28125 -56.9375 L 46.0625 -56.9375 L 46.0625 -42.390625 L 37.328125 -41.78125 L 37.328125 -45.8125 C 37.328125 -46.78125 37.179688 -47.460938 36.890625 -47.859375 C 36.609375 -48.265625 35.925781 -48.46875 34.84375 -48.46875 L 29.03125 -48.46875 L 29.03125 -7.53125 L 35.796875 -7.28125 L 35.796875 0 L 11.640625 0 L 11.640625 -6.9375 L 16.1875 -7.1875 C 17.84375 -7.363281 18.671875 -8.164062 18.671875 -9.59375 Z M 18.671875 -9.59375 "/></g></g></g></svg>