<svg xmlns="http://www.w3.org/2000/svg" xmlns:xlink="http://www.w3.org/1999/xlink" width="1920" zoomAndPan="magnify" viewBox="0 0 1440 809.999993" height="1080" preserveAspectRatio="xMidYMid meet" version="1.0"><defs><clipPath id="5f85012d94"><path d="M 805.199219 385.828125 L 811.199219 385.828125 L 811.199219 391.828125 L 805.199219 391.828125 Z M 805.199219 385.828125 " clip-rule="nonzero"/></clipPath><clipPath id="d48530f220"><path d="M 808.199219 385.828125 C 806.542969 385.828125 805.199219 387.171875 805.199219 388.828125 C 805.199219 390.488281 806.542969 391.828125 808.199219 391.828125 C 809.855469 391.828125 811.199219 390.488281 811.199219 388.828125 C 811.199219 387.171875 809.855469 385.828125 808.199219 385.828125 Z M 808.199219 385.828125 " clip-rule="nonzero"/></clipPath><clipPath id="721438fe4c"><path d="M 626 289.828125 L 814 289.828125 L 814 520.078125 L 626 520.078125 Z M 626 289.828125 " clip-rule="nonzero"/></clipPath></defs><g clip-path="url(#5f85012d94)"><g clip-path="url(#d48530f220)"><path fill="#a04545" d="M 805.199219 385.828125 L 811.199219 385.828125 L 811.199219 391.828125 L 805.199219 391.828125 Z M 805.199219 385.828125 " fill-opacity="1" fill-rule="nonzero"/></g></g><g clip-path="url(#721438fe4c)"><path fill="#a04545" d="M 703.976562 424.925781 L 756.070312 372.78125 C 756.339844 372.523438 756.632812 372.292969 756.949219 372.089844 C 757.261719 371.886719 757.59375 371.714844 757.9375 371.574219 C 758.285156 371.433594 758.644531 371.328125 759.011719 371.257812 C 759.378906 371.183594 759.75 371.148438 760.121094 371.148438 C 760.496094 371.144531 760.867188 371.179688 761.234375 371.25 C 761.601562 371.320312 761.960938 371.421875 762.308594 371.5625 C 762.65625 371.699219 762.988281 371.867188 763.304688 372.070312 C 763.617188 372.273438 763.910156 372.5 764.183594 372.757812 C 764.449219 373.023438 764.6875 373.3125 764.898438 373.625 C 765.109375 373.941406 765.285156 374.269531 765.429688 374.617188 C 765.574219 374.964844 765.683594 375.324219 765.757812 375.691406 C 765.832031 376.0625 765.871094 376.433594 765.871094 376.8125 C 765.871094 377.1875 765.835938 377.5625 765.765625 377.929688 C 765.691406 378.300781 765.585938 378.660156 765.441406 379.007812 C 765.300781 379.355469 765.125 379.6875 764.917969 380 C 764.710938 380.316406 764.472656 380.605469 764.207031 380.875 L 707.378906 437.757812 C 706.84375 438.296875 706.222656 438.714844 705.519531 439.007812 C 704.816406 439.300781 704.085938 439.449219 703.324219 439.445312 L 703.304688 439.445312 C 702.550781 439.449219 701.820312 439.304688 701.121094 439.015625 C 700.421875 438.730469 699.800781 438.316406 699.265625 437.78125 C 699.035156 437.550781 698.824219 437.300781 698.632812 437.03125 L 675.230469 409.214844 C 675.007812 408.910156 674.816406 408.585938 674.65625 408.242188 C 674.496094 407.898438 674.371094 407.542969 674.28125 407.175781 C 674.191406 406.808594 674.140625 406.433594 674.125 406.054688 C 674.109375 405.679688 674.132812 405.300781 674.191406 404.925781 C 674.25 404.554688 674.34375 404.1875 674.476562 403.832031 C 674.605469 403.476562 674.773438 403.140625 674.96875 402.816406 C 675.167969 402.492188 675.398438 402.195312 675.65625 401.917969 C 675.914062 401.640625 676.195312 401.390625 676.503906 401.167969 C 676.808594 400.945312 677.136719 400.757812 677.480469 400.601562 C 677.824219 400.441406 678.183594 400.320312 678.550781 400.234375 C 678.917969 400.148438 679.292969 400.101562 679.671875 400.085938 C 680.050781 400.074219 680.425781 400.101562 680.800781 400.164062 C 681.175781 400.222656 681.539062 400.324219 681.890625 400.457031 C 682.246094 400.589844 682.582031 400.757812 682.90625 400.960938 C 683.226562 401.160156 683.523438 401.390625 683.800781 401.652344 C 684.074219 401.910156 684.320312 402.195312 684.539062 402.503906 Z M 813.761719 420.625 C 813.898438 437.714844 803.96875 457.875 785.796875 477.390625 C 777.96875 485.78125 769.390625 493.320312 760.066406 500.015625 L 759.667969 500.277344 C 759.5 500.367188 759.347656 500.472656 759.203125 500.597656 L 758.824219 500.902344 C 747.71875 508.917969 735.707031 515.199219 722.785156 519.746094 L 721.152344 520.289062 L 719.507812 519.769531 C 715.574219 518.515625 711.71875 517.058594 707.9375 515.398438 C 707.703125 515.277344 707.464844 515.171875 707.21875 515.078125 L 706.894531 514.945312 C 697.328125 510.492188 688.25 505.203125 679.660156 499.070312 C 671.074219 492.941406 663.121094 486.074219 655.800781 478.46875 C 648.0625 470.585938 641.445312 461.851562 635.953125 452.265625 L 635.75 451.867188 C 635.664062 451.6875 635.5625 451.515625 635.449219 451.355469 L 635.226562 450.984375 C 632.691406 446.59375 630.722656 441.960938 629.3125 437.089844 C 627.902344 432.214844 627.097656 427.246094 626.898438 422.179688 L 626.226562 339.980469 L 626.628906 339.761719 L 719.234375 289.828125 L 719.589844 290.015625 L 813.078125 338.460938 Z M 802.515625 344.945312 L 719.34375 301.863281 L 636.914062 346.304688 L 637.542969 422.09375 C 637.738281 426.261719 638.425781 430.347656 639.601562 434.351562 C 640.777344 438.351562 642.414062 442.160156 644.503906 445.769531 C 644.820312 446.257812 645.101562 446.761719 645.351562 447.289062 C 650.378906 455.992188 656.417969 463.929688 663.460938 471.101562 C 670.285156 478.191406 677.699219 484.601562 685.703125 490.328125 C 693.707031 496.054688 702.167969 501 711.085938 505.167969 C 711.5625 505.34375 712.027344 505.542969 712.480469 505.773438 C 715.316406 506.988281 718.292969 508.148438 721.054688 509.078125 C 732.28125 504.90625 742.761719 499.324219 752.492188 492.332031 C 752.984375 491.925781 753.507812 491.554688 754.058594 491.222656 C 762.730469 484.976562 770.710938 477.945312 778.003906 470.136719 C 794.316406 452.617188 803.230469 435.0625 803.117188 420.703125 Z M 802.515625 344.945312 " fill-opacity="1" fill-rule="nonzero"/></g></svg>