<svg xmlns="http://www.w3.org/2000/svg" xmlns:xlink="http://www.w3.org/1999/xlink" width="1920" zoomAndPan="magnify" viewBox="0 0 1440 809.999993" height="1080" preserveAspectRatio="xMidYMid meet" version="1.0"><defs><clipPath id="0ad596a102"><path d="M 866.699219 436.078125 L 872.699219 436.078125 L 872.699219 442.078125 L 866.699219 442.078125 Z M 866.699219 436.078125 " clip-rule="nonzero"/></clipPath><clipPath id="f3d9c71204"><path d="M 869.699219 436.078125 C 868.042969 436.078125 866.699219 437.421875 866.699219 439.078125 C 866.699219 440.738281 868.042969 442.078125 869.699219 442.078125 C 871.355469 442.078125 872.699219 440.738281 872.699219 439.078125 C 872.699219 437.421875 871.355469 436.078125 869.699219 436.078125 Z M 869.699219 436.078125 " clip-rule="nonzero"/></clipPath><clipPath id="12292fe35e"><path d="M 837 391 L 883.851562 391 L 883.851562 454 L 837 454 Z M 837 391 " clip-rule="nonzero"/></clipPath><clipPath id="c28ca21eb5"><path d="M 718 339.550781 L 781 339.550781 L 781 372 L 718 372 Z M 718 339.550781 " clip-rule="nonzero"/></clipPath><clipPath id="da34dc2acb"><path d="M 749 446 L 870 446 L 870 470.800781 L 749 470.800781 Z M 749 446 " clip-rule="nonzero"/></clipPath><clipPath id="e087ce1960"><path d="M 556.101562 422 L 677 422 L 677 454 L 556.101562 454 Z M 556.101562 422 " clip-rule="nonzero"/></clipPath></defs><g clip-path="url(#0ad596a102)"><g clip-path="url(#f3d9c71204)"><path fill="#a04545" d="M 866.699219 436.078125 L 872.699219 436.078125 L 872.699219 442.078125 L 866.699219 442.078125 Z M 866.699219 436.078125 " fill-opacity="1" fill-rule="nonzero"/></g></g><g clip-path="url(#12292fe35e)"><path fill="#a04545" d="M 849.75 453.984375 C 849.75 453.984375 849.75 453.234375 849.75 451.929688 C 849.75 451.277344 849.75 450.476562 849.75 449.523438 C 849.699219 448.621094 849.648438 447.570312 849.597656 446.417969 C 849.597656 445.265625 849.449219 444.0625 849.296875 442.757812 C 849.246094 442.105469 849.199219 441.453125 849.097656 440.753906 C 848.996094 440.101562 848.898438 439.398438 848.796875 438.699219 C 848.695312 437.996094 848.597656 437.292969 848.496094 436.542969 C 848.34375 435.839844 848.195312 435.089844 848.042969 434.386719 C 847.894531 433.636719 847.792969 432.933594 847.59375 432.179688 C 847.394531 431.429688 847.242188 430.726562 847.042969 429.976562 C 845.539062 424.109375 843.332031 418.398438 841.328125 414.285156 C 841.078125 413.785156 840.828125 413.285156 840.625 412.78125 C 840.375 412.332031 840.125 411.878906 839.925781 411.480469 C 839.472656 410.675781 839.121094 409.925781 838.769531 409.324219 C 838.472656 408.722656 838.171875 408.320312 837.96875 407.972656 C 837.769531 407.671875 837.667969 407.519531 837.667969 407.519531 L 863.484375 391.027344 C 863.484375 391.027344 863.632812 391.230469 863.882812 391.628906 C 864.136719 392.03125 864.585938 392.632812 865.035156 393.382812 C 865.488281 394.136719 866.089844 395.089844 866.742188 396.191406 C 867.09375 396.742188 867.394531 397.292969 867.792969 397.894531 C 868.144531 398.496094 868.496094 399.199219 868.847656 399.851562 C 870.351562 402.558594 872.003906 405.867188 873.558594 409.425781 C 873.960938 410.328125 874.308594 411.230469 874.710938 412.179688 C 874.910156 412.632812 875.113281 413.132812 875.3125 413.585938 C 875.464844 414.085938 875.664062 414.539062 875.863281 415.039062 C 876.566406 416.992188 877.316406 418.898438 877.867188 420.953125 C 878.167969 421.957031 878.46875 422.957031 878.769531 423.960938 C 879.070312 424.964844 879.324219 425.964844 879.574219 426.96875 C 879.824219 427.972656 880.074219 428.972656 880.324219 429.925781 C 880.527344 430.929688 880.726562 431.878906 880.925781 432.832031 C 881.128906 433.785156 881.328125 434.738281 881.476562 435.691406 C 881.628906 436.644531 881.777344 437.542969 881.929688 438.445312 C 882.179688 440.25 882.480469 441.90625 882.582031 443.460938 C 882.730469 445.011719 882.882812 446.46875 882.980469 447.71875 C 883.03125 448.972656 883.082031 450.125 883.132812 451.027344 C 883.234375 452.882812 883.28125 453.886719 883.28125 453.886719 L 849.75 453.886719 Z M 849.75 453.984375 " fill-opacity="1" fill-rule="nonzero"/></g><path fill="#a04545" d="M 830.402344 397.09375 C 830.402344 397.09375 829.898438 396.492188 829.046875 395.441406 C 828.597656 394.9375 828.042969 394.335938 827.441406 393.636719 C 827.140625 393.285156 826.792969 392.933594 826.441406 392.53125 C 826.089844 392.132812 825.6875 391.78125 825.289062 391.328125 C 822.078125 387.972656 817.417969 383.859375 812.304688 380.351562 C 811.652344 379.902344 811.003906 379.449219 810.402344 379.046875 C 809.75 378.648438 809.097656 378.246094 808.445312 377.84375 C 807.792969 377.445312 807.140625 377.042969 806.492188 376.644531 C 805.839844 376.292969 805.1875 375.941406 804.535156 375.589844 C 803.882812 375.238281 803.28125 374.886719 802.632812 374.585938 C 801.980469 374.285156 801.378906 373.984375 800.777344 373.683594 C 800.175781 373.382812 799.574219 373.082031 799.023438 372.832031 C 798.421875 372.582031 797.871094 372.332031 797.367188 372.132812 C 795.210938 371.179688 793.40625 370.527344 792.105469 370.027344 C 791.453125 369.777344 790.953125 369.574219 790.601562 369.476562 C 790.25 369.375 790.050781 369.324219 790.050781 369.324219 L 797.71875 343.609375 C 797.71875 343.609375 797.96875 343.660156 798.421875 343.8125 C 798.871094 343.910156 799.574219 344.113281 800.425781 344.414062 C 802.128906 344.964844 804.585938 345.664062 807.441406 346.769531 C 808.144531 347.019531 808.898438 347.320312 809.699219 347.621094 C 810.449219 347.921875 811.253906 348.273438 812.054688 348.621094 C 812.855469 348.972656 813.707031 349.324219 814.5625 349.675781 C 815.414062 350.027344 816.265625 350.476562 817.117188 350.878906 C 817.96875 351.28125 818.871094 351.730469 819.773438 352.132812 C 820.675781 352.582031 821.527344 353.082031 822.429688 353.535156 C 823.332031 354.035156 824.234375 354.488281 825.085938 354.988281 C 825.9375 355.539062 826.839844 356.042969 827.695312 356.59375 L 828.996094 357.394531 C 829.449219 357.644531 829.847656 357.945312 830.300781 358.246094 C 831.152344 358.796875 832.003906 359.398438 832.804688 359.949219 C 834.511719 361.054688 836.066406 362.308594 837.617188 363.460938 C 840.675781 365.816406 843.433594 368.171875 845.6875 370.277344 C 846.238281 370.777344 846.792969 371.277344 847.34375 371.78125 C 847.84375 372.28125 848.296875 372.734375 848.746094 373.183594 C 849.648438 374.085938 850.402344 374.839844 851.050781 375.488281 C 852.253906 376.84375 852.957031 377.59375 852.957031 377.59375 Z M 830.402344 397.09375 " fill-opacity="1" fill-rule="nonzero"/><g clip-path="url(#c28ca21eb5)"><path fill="#a04545" d="M 777.367188 366.117188 C 777.367188 366.117188 776.617188 366.015625 775.210938 365.765625 C 774.863281 365.714844 774.511719 365.664062 774.109375 365.566406 C 773.707031 365.515625 773.257812 365.464844 772.757812 365.414062 C 771.804688 365.3125 770.703125 365.214844 769.546875 365.0625 C 764.835938 364.710938 758.472656 364.613281 752.15625 365.3125 C 751.753906 365.363281 751.351562 365.363281 750.953125 365.414062 L 749.800781 365.613281 C 748.996094 365.714844 748.246094 365.867188 747.441406 365.964844 C 746.640625 366.066406 745.890625 366.214844 745.136719 366.367188 C 744.386719 366.515625 743.632812 366.667969 742.933594 366.816406 C 742.179688 366.917969 741.476562 367.167969 740.777344 367.320312 C 740.074219 367.46875 739.421875 367.671875 738.722656 367.820312 C 738.070312 367.972656 737.417969 368.171875 736.816406 368.371094 C 736.214844 368.574219 735.613281 368.722656 735.011719 368.921875 C 733.859375 369.222656 732.855469 369.625 731.90625 369.976562 C 731.003906 370.328125 730.199219 370.578125 729.546875 370.828125 C 728.246094 371.378906 727.542969 371.679688 727.542969 371.679688 L 718.070312 350.777344 C 718.070312 350.777344 718.972656 350.328125 720.574219 349.574219 C 721.378906 349.222656 722.378906 348.824219 723.484375 348.320312 C 724.636719 347.871094 725.890625 347.269531 727.292969 346.816406 C 727.996094 346.566406 728.746094 346.265625 729.5 346.015625 C 730.25 345.714844 731.050781 345.414062 731.90625 345.214844 C 732.707031 344.964844 733.558594 344.714844 734.460938 344.414062 C 735.3125 344.160156 736.214844 343.859375 737.117188 343.609375 C 738.019531 343.359375 738.972656 343.160156 739.925781 342.910156 C 740.875 342.65625 741.828125 342.40625 742.78125 342.207031 C 743.734375 342.007812 744.738281 341.804688 745.738281 341.605469 L 747.242188 341.304688 C 747.742188 341.203125 748.246094 341.152344 748.746094 341.054688 C 752.757812 340.402344 756.765625 339.949219 760.527344 339.75 C 761.476562 339.699219 762.378906 339.648438 763.332031 339.601562 C 763.785156 339.601562 764.234375 339.550781 764.6875 339.550781 C 765.136719 339.550781 765.589844 339.550781 765.988281 339.550781 C 767.742188 339.550781 769.347656 339.550781 770.902344 339.550781 C 772.40625 339.648438 773.808594 339.699219 775.0625 339.75 C 775.664062 339.800781 776.265625 339.800781 776.765625 339.851562 C 777.316406 339.902344 777.769531 339.949219 778.21875 340 C 779.972656 340.203125 780.976562 340.300781 780.976562 340.300781 Z M 777.367188 366.117188 " fill-opacity="1" fill-rule="nonzero"/></g><path fill="#a04545" d="M 825.4375 456.089844 L 831.804688 457.042969 C 831.605469 417.292969 799.324219 385.164062 759.574219 385.164062 C 758.519531 385.164062 757.46875 385.214844 756.414062 385.214844 C 794.359375 386.867188 824.738281 417.84375 825.4375 456.089844 Z M 825.4375 456.089844 " fill-opacity="1" fill-rule="nonzero"/><g clip-path="url(#da34dc2acb)"><path fill="#a04545" d="M 765.136719 447.21875 C 764.183594 446.917969 763.132812 446.71875 762.078125 446.667969 C 755.511719 446.367188 749.949219 451.480469 749.648438 458.097656 C 749.347656 464.664062 754.460938 470.226562 761.078125 470.527344 C 762.128906 470.578125 763.183594 470.476562 764.183594 470.277344 L 869.148438 462.558594 Z M 760.777344 464.460938 C 757.519531 464.460938 754.910156 461.855469 754.910156 458.597656 C 754.910156 455.339844 757.519531 452.734375 760.777344 452.734375 C 764.035156 452.734375 766.640625 455.339844 766.640625 458.597656 C 766.640625 461.855469 764.035156 464.460938 760.777344 464.460938 Z M 760.777344 464.460938 " fill-opacity="1" fill-rule="nonzero"/></g><g clip-path="url(#e087ce1960)"><path fill="#a04545" d="M 658.371094 422.957031 C 658.371094 422.957031 658.121094 423.910156 657.71875 425.566406 C 657.46875 426.367188 657.316406 427.417969 657.066406 428.574219 C 656.96875 429.175781 656.816406 429.777344 656.667969 430.425781 C 656.515625 431.078125 656.367188 431.78125 656.265625 432.480469 C 655.613281 435.992188 655.113281 440.25 654.863281 444.761719 L 556.164062 453.984375 L 671.554688 453.984375 C 671.753906 447.371094 672.707031 440.804688 673.808594 435.992188 C 673.910156 435.390625 674.058594 434.839844 674.210938 434.285156 C 674.359375 433.734375 674.511719 433.234375 674.613281 432.734375 C 674.863281 431.78125 675.0625 430.929688 675.3125 430.226562 C 675.765625 428.875 676.015625 428.070312 676.015625 428.070312 Z M 658.371094 422.957031 " fill-opacity="1" fill-rule="nonzero"/></g><path fill="#a04545" d="M 703.683594 359.148438 C 703.683594 359.148438 703.484375 359.300781 703.082031 359.550781 C 702.679688 359.800781 702.128906 360.203125 701.429688 360.703125 C 700.726562 361.203125 699.875 361.855469 698.921875 362.609375 C 698.421875 362.957031 697.917969 363.359375 697.367188 363.761719 C 696.816406 364.210938 696.265625 364.664062 695.714844 365.113281 C 694.5625 366.066406 693.308594 367.070312 692.054688 368.222656 C 690.800781 369.375 689.398438 370.578125 688.144531 371.878906 C 686.84375 373.183594 685.4375 374.539062 684.136719 375.992188 C 683.484375 376.691406 682.832031 377.445312 682.128906 378.195312 C 681.476562 378.949219 680.878906 379.699219 680.226562 380.453125 C 679.574219 381.203125 678.972656 381.957031 678.320312 382.757812 C 677.71875 383.558594 677.117188 384.3125 676.566406 385.113281 C 676.015625 385.914062 675.363281 386.667969 674.863281 387.46875 C 674.3125 388.273438 673.808594 389.023438 673.257812 389.824219 C 672.207031 391.328125 671.304688 392.882812 670.402344 394.335938 C 669.949219 395.089844 669.5 395.742188 669.148438 396.441406 C 668.746094 397.144531 668.394531 397.84375 668.046875 398.496094 C 667.242188 399.949219 666.542969 401.304688 665.988281 402.457031 L 600.726562 415.441406 L 681.128906 415.441406 C 681.128906 415.441406 681.226562 415.238281 681.378906 414.886719 C 681.527344 414.539062 681.777344 414.035156 682.128906 413.433594 C 682.480469 412.832031 682.882812 412.03125 683.382812 411.179688 C 683.632812 410.726562 683.835938 410.277344 684.136719 409.824219 C 684.4375 409.375 684.738281 408.875 685.039062 408.320312 C 685.339844 407.820312 685.6875 407.269531 686.039062 406.71875 C 686.390625 406.167969 686.792969 405.613281 687.191406 405.011719 C 687.996094 403.859375 688.796875 402.609375 689.75 401.40625 C 690.199219 400.804688 690.652344 400.203125 691.152344 399.550781 C 691.605469 398.898438 692.15625 398.347656 692.65625 397.695312 C 693.15625 397.09375 693.660156 396.441406 694.210938 395.839844 C 694.761719 395.238281 695.3125 394.636719 695.863281 394.035156 C 696.414062 393.433594 696.96875 392.832031 697.519531 392.28125 C 698.070312 391.730469 698.671875 391.128906 699.222656 390.578125 C 700.324219 389.425781 701.527344 388.421875 702.632812 387.417969 C 703.734375 386.367188 704.886719 385.515625 705.988281 384.613281 C 707.042969 383.710938 708.144531 382.957031 709.097656 382.257812 C 709.597656 381.90625 710.050781 381.554688 710.5 381.203125 C 710.953125 380.902344 711.402344 380.601562 711.804688 380.351562 C 712.605469 379.800781 713.308594 379.347656 713.910156 378.949219 C 714.511719 378.546875 714.960938 378.296875 715.3125 378.097656 C 715.613281 377.894531 715.8125 377.796875 715.8125 377.796875 Z M 703.683594 359.148438 " fill-opacity="1" fill-rule="nonzero"/></svg>